<svg width="62" height="62" viewBox="0 0 62 62" fill="none" xmlns="http://www.w3.org/2000/svg">
<mask id="mask0_43_888" style="mask-type:alpha" maskUnits="userSpaceOnUse" x="0" y="0" width="62" height="62">
<rect width="62" height="62" fill="#D9D9D9"/>
</mask>
<g mask="url(#mask0_43_888)">
<path d="M14.2083 27.1333C14.6535 27.1333 15.0949 27.2212 15.5062 27.3916C15.9174 27.562 16.2908 27.8119 16.6055 28.1266C16.9203 28.4414 17.1702 28.8148 17.3406 29.226C17.511 29.6373 17.5989 30.0787 17.5989 30.5239V32.2192H26.0754V37.5215C25.7697 37.6005 25.469 37.7003 25.1759 37.8217C24.3532 38.1625 23.6059 38.6622 22.9762 39.2919C22.3465 39.9216 21.8468 40.6688 21.506 41.4916C21.1653 42.3143 20.9895 43.1959 20.9895 44.0864C20.9895 44.9769 21.1653 45.8586 21.506 46.6813C21.8468 47.504 22.3465 48.2513 22.9762 48.881C23.6059 49.5107 24.3532 50.0103 25.1759 50.3511C25.4689 50.4725 25.7698 50.5712 26.0754 50.6502V54.2583H4.03638V32.2192H10.8176V30.5239L10.8342 30.1906C10.8669 29.8595 10.9482 29.5343 11.0759 29.226C11.2463 28.8148 11.4962 28.4414 11.811 28.1266C12.1257 27.8119 12.4991 27.562 12.9103 27.3916C13.3216 27.2212 13.763 27.1333 14.2083 27.1333Z" fill="url(#paint0_linear_43_888)"/>
<path d="M34.7683 32.2192C34.8474 32.525 34.9472 32.8257 35.0685 33.1188C35.4093 33.9415 35.909 34.6888 36.5387 35.3185C37.1684 35.9482 37.9157 36.4478 38.7384 36.7886C39.5611 37.1294 40.4428 37.3052 41.3333 37.3052C42.2238 37.3052 43.1054 37.1294 43.9281 36.7886C44.7508 36.4478 45.4981 35.9482 46.1278 35.3185C46.7575 34.6888 47.2572 33.9415 47.598 33.1188C47.7193 32.8258 47.8181 32.5249 47.8971 32.2192H51.5051V54.2583H29.4661V47.4771H27.7708C27.3255 47.4771 26.8841 47.3892 26.4728 47.2188C26.0616 47.0484 25.6882 46.7984 25.3735 46.4837C25.0587 46.169 24.8088 45.7956 24.6384 45.3844C24.468 44.973 24.3801 44.5317 24.3801 44.0864C24.3801 43.6412 24.468 43.1998 24.6384 42.7885C24.8088 42.3773 25.0587 42.0039 25.3735 41.6891C25.6882 41.3744 26.0616 41.1245 26.4728 40.9541C26.7811 40.8263 27.1064 40.7451 27.4374 40.7124L27.7708 40.6958H29.4661V32.2192H34.7683Z" fill="url(#paint1_linear_43_888)"/>
<path d="M51.5051 28.8286H44.7239V30.5239C44.7239 30.9692 44.636 31.4105 44.4656 31.8219C44.2952 32.2331 44.0453 32.6065 43.7305 32.9212C43.4158 33.2359 43.0424 33.4859 42.6312 33.6563C42.2199 33.8267 41.7785 33.9146 41.3333 33.9146C40.888 33.9146 40.4466 33.8267 40.0353 33.6563C39.6241 33.4859 39.2507 33.2359 38.936 32.9212C38.6212 32.6065 38.3713 32.2331 38.2009 31.8219C38.0732 31.5135 37.9919 31.1883 37.9592 30.8573L37.9426 30.5239V28.8286H29.4661V23.5252C29.7717 23.4462 30.0726 23.3475 30.3656 23.2261C31.1883 22.8853 31.9356 22.3857 32.5653 21.756C33.195 21.1263 33.6947 20.379 34.0355 19.5563C34.3762 18.7336 34.552 17.8519 34.552 16.9614C34.552 16.0709 34.3762 15.1893 34.0355 14.3666C33.6947 13.5438 33.195 12.7966 32.5653 12.1669C31.9356 11.5372 31.1883 11.0375 30.3656 10.6967C30.0725 10.5753 29.7718 10.4755 29.4661 10.3965V6.78955H51.5051V28.8286Z" fill="url(#paint2_linear_43_888)"/>
<path d="M26.0754 13.5708H27.7708C28.216 13.5708 28.6574 13.6587 29.0687 13.8291C29.4799 13.9995 29.8533 14.2494 30.168 14.5641C30.4828 14.8789 30.7327 15.2523 30.9031 15.6635C31.0735 16.0748 31.1614 16.5162 31.1614 16.9614C31.1614 17.4067 31.0735 17.848 30.9031 18.2594C30.7327 18.6706 30.4828 19.044 30.168 19.3587C29.8533 19.6734 29.4799 19.9234 29.0687 20.0938C28.6574 20.2642 28.216 20.3521 27.7708 20.3521H26.0754V28.8286H20.7721C20.6931 28.523 20.5943 28.2221 20.473 27.9291C20.1322 27.1063 19.6325 26.3591 19.0028 25.7294C18.3731 25.0997 17.6258 24.6 16.8031 24.2592C15.9804 23.9184 15.0988 23.7427 14.2083 23.7427C13.3178 23.7427 12.4361 23.9184 11.6134 24.2592C10.7907 24.6 10.0434 25.0997 9.4137 25.7294C8.784 26.3591 8.28433 27.1063 7.94354 27.9291C7.82215 28.2221 7.72236 28.5229 7.64333 28.8286H4.03638V6.78955H26.0754V13.5708Z" fill="url(#paint3_linear_43_888)"/>
</g>
<defs>
<linearGradient id="paint0_linear_43_888" x1="-0.184153" y1="4.88708" x2="65.7016" y2="49.1591" gradientUnits="userSpaceOnUse">
<stop stop-color="#49A466"/>
<stop offset="0.5" stop-color="#6F83F2"/>
<stop offset="1" stop-color="#8A3DFF"/>
</linearGradient>
<linearGradient id="paint1_linear_43_888" x1="-0.184153" y1="4.88708" x2="65.7016" y2="49.1591" gradientUnits="userSpaceOnUse">
<stop stop-color="#49A466"/>
<stop offset="0.5" stop-color="#6F83F2"/>
<stop offset="1" stop-color="#8A3DFF"/>
</linearGradient>
<linearGradient id="paint2_linear_43_888" x1="-0.184153" y1="4.88708" x2="65.7016" y2="49.1591" gradientUnits="userSpaceOnUse">
<stop stop-color="#49A466"/>
<stop offset="0.5" stop-color="#6F83F2"/>
<stop offset="1" stop-color="#8A3DFF"/>
</linearGradient>
<linearGradient id="paint3_linear_43_888" x1="-0.184153" y1="4.88708" x2="65.7016" y2="49.1591" gradientUnits="userSpaceOnUse">
<stop stop-color="#49A466"/>
<stop offset="0.5" stop-color="#6F83F2"/>
<stop offset="1" stop-color="#8A3DFF"/>
</linearGradient>
</defs>
</svg>
