<svg width="63" height="63" viewBox="0 0 63 63" fill="none" xmlns="http://www.w3.org/2000/svg">
<mask id="mask0_43_870" style="mask-type:alpha" maskUnits="userSpaceOnUse" x="0" y="0" width="63" height="63">
<rect width="62.1818" height="62.1818" fill="#D9D9D9"/>
</mask>
<g mask="url(#mask0_43_870)">
<path d="M16.8532 25.1447C14.2574 25.1447 11.74 23.7899 10.3603 21.3746C8.31373 17.788 9.55607 13.2195 13.1392 11.1709L28.7797 2.21725C32.3628 0.168646 36.9268 1.41221 38.9734 4.9989C41.02 8.58561 39.7777 13.1541 36.1946 15.2092L20.5606 24.1563C19.3902 24.8238 18.1152 25.1447 16.8532 25.1447Z" fill="url(#paint0_linear_43_870)"/>
<path d="M16.8532 46.5406C14.2574 46.5406 11.74 45.1858 10.3603 42.7705C8.31373 39.1839 9.55607 34.6154 13.1392 32.5668L28.7731 23.6198C32.3564 21.5712 36.9204 22.8147 38.9669 26.4013C41.02 29.9814 39.7777 34.5566 36.1946 36.6052L20.5606 45.5522C19.3902 46.2264 18.1152 46.5406 16.8532 46.5406Z" fill="url(#paint1_linear_43_870)"/>
<path d="M29.7082 60.9509C27.1123 60.9509 24.5949 59.5961 23.2152 57.1811C21.1686 53.5942 22.411 49.0257 25.9941 46.9772L41.6281 38.0301C45.2112 35.9815 49.7752 37.225 51.8218 40.8118C53.8683 44.3985 52.6261 48.9669 49.043 51.0155L33.4089 59.9626C32.2385 60.6303 30.9636 60.9509 29.7082 60.9509Z" fill="url(#paint2_linear_43_870)"/>
</g>
<defs>
<linearGradient id="paint0_linear_43_870" x1="5.5128" y1="-1.16303" x2="76.1476" y2="33.3556" gradientUnits="userSpaceOnUse">
<stop stop-color="#49A466"/>
<stop offset="0.5" stop-color="#6F83F2"/>
<stop offset="1" stop-color="#8A3DFF"/>
</linearGradient>
<linearGradient id="paint1_linear_43_870" x1="5.5128" y1="-1.16303" x2="76.1476" y2="33.3556" gradientUnits="userSpaceOnUse">
<stop stop-color="#49A466"/>
<stop offset="0.5" stop-color="#6F83F2"/>
<stop offset="1" stop-color="#8A3DFF"/>
</linearGradient>
<linearGradient id="paint2_linear_43_870" x1="5.5128" y1="-1.16303" x2="76.1476" y2="33.3556" gradientUnits="userSpaceOnUse">
<stop stop-color="#49A466"/>
<stop offset="0.5" stop-color="#6F83F2"/>
<stop offset="1" stop-color="#8A3DFF"/>
</linearGradient>
</defs>
</svg>
