<svg name="PersonalizeSettingsActive" data-test-id="cs-icon" width="27" height="28" viewBox="0 0 27 28" fill="none" xmlns="http://www.w3.org/2000/svg"><path fill-rule="evenodd" clip-rule="evenodd" d="M13.334 9.505c-2.46 0-4.453 2.012-4.453 4.495s1.993 4.496 4.453 4.496c2.459 0 4.452-2.013 4.452-4.496 0-2.483-1.993-4.495-4.452-4.495zM7.609 14c0-3.192 2.563-5.78 5.725-5.78 3.161 0 5.724 2.588 5.724 5.78 0 3.193-2.563 5.78-5.724 5.78-3.162 0-5.725-2.587-5.725-5.78z" fill="#6C5CE7"></path><path fill-rule="evenodd" clip-rule="evenodd" d="M9.767 2.781a.63.63 0 0 1 .522.06l2.534 1.536c.34-.018.68-.018 1.02 0l2.524-1.525a.63.63 0 0 1 .518-.061 11.486 11.486 0 0 1 4.287 2.492c.135.125.21.301.207.486l-.05 2.975c.19.289.361.588.514.897l2.57 1.443c.159.089.272.242.312.421a11.67 11.67 0 0 1 .01 4.987.642.642 0 0 1-.312.425l-2.58 1.443a8.539 8.539 0 0 1-.513.896l.05 2.976a.645.645 0 0 1-.208.485 11.637 11.637 0 0 1-4.272 2.502.63.63 0 0 1-.523-.06l-2.534-1.536c-.34.018-.68.018-1.02 0l-2.524 1.525a.63.63 0 0 1-.518.062 11.488 11.488 0 0 1-4.286-2.493.645.645 0 0 1-.208-.486l.05-2.968a9.232 9.232 0 0 1-.513-.904l-2.57-1.443a.642.642 0 0 1-.312-.421 11.67 11.67 0 0 1-.012-4.987.642.642 0 0 1 .314-.425l2.58-1.442c.152-.31.324-.609.513-.897l-.05-2.975a.645.645 0 0 1 .208-.486 11.636 11.636 0 0 1 4.272-2.502zM6.564 6.042l.048 2.884a.647.647 0 0 1-.115.379c-.234.339-.44.697-.613 1.072a.64.64 0 0 1-.268.289l-2.5 1.398c-.24 1.28-.237 2.594.01 3.872l2.491 1.4a.64.64 0 0 1 .266.286c.177.38.384.744.618 1.09.074.11.113.24.111.373l-.048 2.873c.98.852 2.11 1.51 3.332 1.937l2.443-1.476a.631.631 0 0 1 .372-.09c.414.03.83.03 1.245 0 .13-.009.26.023.372.09l2.451 1.485a10.368 10.368 0 0 0 3.323-1.946l-.048-2.884a.646.646 0 0 1 .115-.379 7.26 7.26 0 0 0 .613-1.071.64.64 0 0 1 .268-.29l2.5-1.397c.24-1.28.237-2.595-.01-3.873l-2.49-1.399a.64.64 0 0 1-.268-.288 7.254 7.254 0 0 0-.613-1.072.646.646 0 0 1-.115-.379l.049-2.883c-.98-.853-2.11-1.51-3.333-1.938l-2.442 1.476a.631.631 0 0 1-.372.09c-.415-.03-.83-.03-1.245 0a.632.632 0 0 1-.373-.09L9.887 4.096a10.366 10.366 0 0 0-3.323 1.946z" fill="#6C5CE7"></path><path fill-rule="evenodd" clip-rule="evenodd" d="M6.612 8.926l-.048-2.884a10.366 10.366 0 0 1 3.323-1.946l2.451 1.485c.112.068.242.1.373.09.414-.03.83-.03 1.245 0 .13.01.26-.022.372-.09l2.442-1.476a10.217 10.217 0 0 1 3.332 1.938l-.048 2.883a.646.646 0 0 0 .115.379c.234.339.44.697.613 1.072a.64.64 0 0 0 .267.288l2.492 1.399c.246 1.278.249 2.593.009 3.873l-2.5 1.398a.64.64 0 0 0-.268.289 7.26 7.26 0 0 1-.613 1.071.646.646 0 0 0-.115.379l.049 2.884a10.368 10.368 0 0 1-3.324 1.946l-2.45-1.485a.631.631 0 0 0-.373-.09c-.415.03-.83.03-1.245 0a.631.631 0 0 0-.372.09l-2.443 1.476a10.216 10.216 0 0 1-3.332-1.937l.048-2.873a.647.647 0 0 0-.11-.373 7.957 7.957 0 0 1-.619-1.09.64.64 0 0 0-.266-.287l-2.491-1.399a10.374 10.374 0 0 1-.01-3.872l2.5-1.398a.64.64 0 0 0 .268-.29c.174-.374.379-.732.613-1.071a.647.647 0 0 0 .115-.379zM7.609 14c0-3.192 2.563-5.78 5.725-5.78 3.161 0 5.724 2.588 5.724 5.78 0 3.193-2.563 5.78-5.724 5.78-3.162 0-5.725-2.587-5.725-5.78z" fill="#6C5CE7"></path></svg>