<svg name="PersonalizeSettingsDefault" data-test-id="cs-icon" width="27" height="28" viewBox="0 0 27 28" fill="none" xmlns="http://www.w3.org/2000/svg"><g clip-path="url(#a)" fill-rule="evenodd" clip-rule="evenodd" fill="#647696"><path d="M13.334 9.838c-2.46 0-4.453 2.013-4.453 4.496 0 2.483 1.994 4.495 4.453 4.495 2.459 0 4.452-2.012 4.452-4.495s-1.993-4.496-4.452-4.496zm-5.725 4.496c0-3.193 2.563-5.78 5.725-5.78 3.161 0 5.724 2.587 5.724 5.78 0 3.192-2.563 5.78-5.724 5.78-3.162 0-5.725-2.588-5.725-5.78z"></path><path d="M9.767 3.115a.63.63 0 0 1 .522.06l2.534 1.535c.34-.017.68-.017 1.02 0l2.524-1.525a.63.63 0 0 1 .518-.061 11.487 11.487 0 0 1 4.287 2.493c.135.124.21.3.207.485l-.05 2.976c.19.288.361.587.514.897l2.57 1.442c.159.09.272.243.312.422a11.67 11.67 0 0 1 .011 4.987.642.642 0 0 1-.313.424l-2.58 1.443a8.556 8.556 0 0 1-.513.896l.05 2.976a.646.646 0 0 1-.208.485 11.636 11.636 0 0 1-4.272 2.502.63.63 0 0 1-.523-.06l-2.534-1.535c-.34.017-.68.017-1.02 0L10.3 25.482a.63.63 0 0 1-.518.061 11.487 11.487 0 0 1-4.286-2.493.645.645 0 0 1-.208-.485l.05-2.968a9.232 9.232 0 0 1-.513-.904l-2.57-1.443a.642.642 0 0 1-.312-.422 11.67 11.67 0 0 1-.011-4.986.642.642 0 0 1 .313-.425l2.58-1.443a8.54 8.54 0 0 1 .513-.896l-.05-2.976a.645.645 0 0 1 .208-.485 11.636 11.636 0 0 1 4.272-2.502zm-3.203 3.26l.048 2.885a.647.647 0 0 1-.114.378 7.25 7.25 0 0 0-.614 1.072.64.64 0 0 1-.268.289l-2.5 1.398c-.24 1.28-.236 2.594.01 3.873l2.491 1.399a.64.64 0 0 1 .266.287c.178.379.384.743.618 1.089.075.11.113.24.111.373l-.048 2.873c.98.852 2.11 1.51 3.332 1.937l2.443-1.476a.632.632 0 0 1 .372-.09c.414.03.83.03 1.245 0 .13-.008.26.023.372.09l2.451 1.486a10.364 10.364 0 0 0 3.324-1.947l-.049-2.884a.646.646 0 0 1 .115-.378c.234-.34.44-.698.613-1.072a.64.64 0 0 1 .268-.289l2.5-1.398c.24-1.28.237-2.594-.01-3.873l-2.49-1.399a.64.64 0 0 1-.268-.288 7.244 7.244 0 0 0-.613-1.072.646.646 0 0 1-.114-.378l.048-2.884c-.98-.852-2.11-1.51-3.333-1.937l-2.442 1.476a.631.631 0 0 1-.372.09 8.64 8.64 0 0 0-1.245 0 .631.631 0 0 1-.373-.09l-2.45-1.486a10.366 10.366 0 0 0-3.324 1.947z"></path></g><defs><clipPath id="a"><path fill="#fff" transform="translate(0 .667)" d="M0 0h26.667v26.667H0z"></path></clipPath></defs></svg>