<svg xmlns:xlink="http://www.w3.org/1999/xlink" width="24" height="24" viewBox="0 0 32 32" fill="none" xmlns="http://www.w3.org/2000/svg"><path d="M29 12.505V28l-26-.216v-6.346l5.503-4.709a2.158 2.158 0 0 0 1.992 0l4.535 3.88a2.164 2.164 0 0 0 2.053 2.85 2.164 2.164 0 0 0 2.167-2.162c0-.434-.13-.838-.351-1.177l5.281-7.528a2.161 2.161 0 0 0 2.208-.797l2.612.71Z" fill="url(&quot;#Analytics_svg__a&quot;)"></path><path d="M29 4v6.824l-2.184-.593a2.164 2.164 0 0 0-2.15-1.907 2.164 2.164 0 0 0-2.166 2.162c0 .434.129.837.35 1.175l-5.283 7.53a2.16 2.16 0 0 0-1.479.187l-4.536-3.88a2.15 2.15 0 0 0 .115-.687c0-1.194-.97-2.162-2.167-2.162a2.164 2.164 0 0 0-2.053 2.85L3 19.301V4h26Z" fill="url(&quot;#Analytics_svg__b&quot;)"></path><defs><linearGradient id="Analytics_svg__a" x1="0.688" y1="3.038" x2="34.927" y2="27.962" gradientUnits="userSpaceOnUse"><stop stop-color="#49A466"></stop><stop offset="0.5" stop-color="#6F83F2"></stop><stop offset="1" stop-color="#8A3DFF"></stop></linearGradient><linearGradient id="Analytics_svg__b" x1="0.688" y1="3.038" x2="34.927" y2="27.962" gradientUnits="userSpaceOnUse"><stop stop-color="#49A466"></stop><stop offset="0.5" stop-color="#6F83F2"></stop><stop offset="1" stop-color="#8A3DFF"></stop></linearGradient><linearGradient id="Analytics_svg__a" x1="0.688" y1="3.038" x2="34.927" y2="27.962" gradientUnits="userSpaceOnUse"><stop stop-color="#49A466"></stop><stop offset="0.5" stop-color="#6F83F2"></stop><stop offset="1" stop-color="#8A3DFF"></stop></linearGradient><linearGradient id="Analytics_svg__b" x1="0.688" y1="3.038" x2="34.927" y2="27.962" gradientUnits="userSpaceOnUse"><stop stop-color="#49A466"></stop><stop offset="0.5" stop-color="#6F83F2"></stop><stop offset="1" stop-color="#8A3DFF"></stop></linearGradient></defs></svg>