<svg viewBox="0 0 24 24" xmlns:xlink="http://www.w3.org/1999/xlink" width="24" height="24" fill="none" xmlns="http://www.w3.org/2000/svg"><path d="M8 7.44a4.952 4.952 0 0 1-.394-.92L1.614 17.358c-.854 1.544-.347 3.517 1.131 4.409 1.478.891 3.368.362 4.222-1.182l4.15-7.507L8 7.44Z" fill="url(&quot;#Automate_svg__a&quot;)"></path><path d="m15.998 7.44-3.117 5.639 4.15 7.507c.854 1.544 2.744 2.073 4.222 1.182 1.479-.892 1.985-2.865 1.132-4.41L16.392 6.52a4.955 4.955 0 0 1-.394.921Z" fill="url(&quot;#Automate_svg__b&quot;)"></path><path d="M14.676 3.415A3.119 3.119 0 0 0 13.21 2.06a2.993 2.993 0 0 0-1.212-.258 2.993 2.993 0 0 0-1.545.433 3.119 3.119 0 0 0-1.132 1.181l-.017.032a3.35 3.35 0 0 0 .018 3.196l2.676 4.84 2.677-4.84a3.35 3.35 0 0 0 .017-3.196l-.017-.032Z" fill="url(&quot;#Automate_svg__c&quot;)"></path><defs><linearGradient id="Automate_svg__a" x1="-0.721" y1="0.983" x2="28.171" y2="21.539" gradientUnits="userSpaceOnUse"><stop stop-color="#49A466"></stop><stop offset="0.5" stop-color="#6F83F2"></stop><stop offset="1" stop-color="#8A3DFF"></stop></linearGradient><linearGradient id="Automate_svg__b" x1="-0.721" y1="0.983" x2="28.171" y2="21.539" gradientUnits="userSpaceOnUse"><stop stop-color="#49A466"></stop><stop offset="0.5" stop-color="#6F83F2"></stop><stop offset="1" stop-color="#8A3DFF"></stop></linearGradient><linearGradient id="Automate_svg__c" x1="-0.721" y1="0.983" x2="28.171" y2="21.539" gradientUnits="userSpaceOnUse"><stop stop-color="#49A466"></stop><stop offset="0.5" stop-color="#6F83F2"></stop><stop offset="1" stop-color="#8A3DFF"></stop></linearGradient><linearGradient id="Automate_svg__a" x1="-0.721" y1="0.983" x2="28.171" y2="21.539" gradientUnits="userSpaceOnUse"><stop stop-color="#49A466"></stop><stop offset="0.5" stop-color="#6F83F2"></stop><stop offset="1" stop-color="#8A3DFF"></stop></linearGradient><linearGradient id="Automate_svg__b" x1="-0.721" y1="0.983" x2="28.171" y2="21.539" gradientUnits="userSpaceOnUse"><stop stop-color="#49A466"></stop><stop offset="0.5" stop-color="#6F83F2"></stop><stop offset="1" stop-color="#8A3DFF"></stop></linearGradient><linearGradient id="Automate_svg__c" x1="-0.721" y1="0.983" x2="28.171" y2="21.539" gradientUnits="userSpaceOnUse"><stop stop-color="#49A466"></stop><stop offset="0.5" stop-color="#6F83F2"></stop><stop offset="1" stop-color="#8A3DFF"></stop></linearGradient></defs></svg>