<svg width="182" height="249" viewBox="0 0 182 249" fill="none" xmlns="http://www.w3.org/2000/svg">
<path d="M31.2561 99.3568C20.4071 99.3568 9.88613 93.7279 4.12007 83.6937C-4.43338 68.7919 0.758812 49.8112 15.7342 41.2998L81.1011 4.09982C96.0765 -4.41158 115.151 0.755082 123.704 15.6568C132.258 30.5586 127.066 49.5393 112.09 58.0779L46.7507 95.2507C41.8591 98.0244 36.5303 99.3568 31.2561 99.3568Z" fill="#794CFF" style="fill:#794CFF;fill:color(display-p3 0.4745 0.2980 1.0000);fill-opacity:1;"/>
<path d="M31.2561 188.251C20.4071 188.251 9.88613 182.622 4.12007 172.587C-4.43338 157.686 0.758812 138.705 15.7342 130.194L81.0738 93.0207C96.0491 84.5093 115.124 89.676 123.677 104.578C132.258 119.452 127.066 138.46 112.09 146.972L46.7507 184.144C41.8591 186.945 36.5303 188.251 31.2561 188.251Z" fill="#3885D0" style="fill:#3885D0;fill:color(display-p3 0.2196 0.5216 0.8157);fill-opacity:1;"/>
<path d="M84.9816 248.102C74.1326 248.102 63.6116 242.473 57.8455 232.439C49.2921 217.537 54.4843 198.557 69.4596 190.045L134.799 152.872C149.775 144.361 168.849 149.528 177.403 164.429C185.956 179.331 180.764 198.312 165.788 206.823L100.449 243.996C95.5572 246.77 90.2284 248.102 84.9816 248.102Z" fill="url(#paint0_linear_643_4)" style=""/>
<defs>
<linearGradient id="paint0_linear_643_4" x1="53.7069" y1="198.423" x2="181.53" y2="198.423" gradientUnits="userSpaceOnUse">
<stop stop-color="#28AEB9" style="stop-color:#28AEB9;stop-color:color(display-p3 0.1569 0.6824 0.7255);stop-opacity:1;"/>
<stop offset="1" stop-color="#18D6A3" style="stop-color:#18D6A3;stop-color:color(display-p3 0.0941 0.8392 0.6392);stop-opacity:1;"/>
</linearGradient>
</defs>
</svg>
