<svg xmlns:xlink="http://www.w3.org/1999/xlink" width="32" height="32" viewBox="0 0 32 32" fill="none" xmlns="http://www.w3.org/2000/svg" class="ml-10 copy-icon Icon--v2 Icon--small" name="Copy" data-test-id="cs-icon"><path fill-rule="evenodd" clip-rule="evenodd" d="M10.75 3.5a.25.25 0 00-.25.25v20.498c0 .138.112.25.25.25h14.5a.25.25 0 00.25-.25V10.25h-5.338a.85.85 0 01-.85-.85V3.5H10.75zm10.062 1.06l4.19 4.19h-4.19V4.56zM9 3.75C9 2.784 9.784 2 10.75 2h8.898c.464 0 .91.184 1.237.513l5.602 5.6c.328.329.512.774.512 1.238v14.897a1.75 1.75 0 01-1.75 1.75H23v2.25a1.75 1.75 0 01-1.75 1.75H6.75A1.75 1.75 0 015 28.248V7.75C5 6.784 5.784 6 6.75 6H9V3.75zM9 7.5H6.75a.25.25 0 00-.25.25v20.498c0 .138.112.25.25.25h14.5a.25.25 0 00.25-.25v-2.25H10.75A1.75 1.75 0 019 24.248V7.5z" fill="#6C5CE7"></path></svg>