<svg xmlns:xlink="http://www.w3.org/1999/xlink" width="32" height="32" viewBox="0 0 32 32" fill="none" xmlns="http://www.w3.org/2000/svg" class="Icon--v2 Icon--medium" name="Help" data-test-id="cs-icon"><path fill-rule="evenodd" clip-rule="evenodd" d="M16 4.75C9.787 4.75 4.75 9.787 4.75 16S9.787 27.25 16 27.25 27.25 22.213 27.25 16 22.213 4.75 16 4.75zM3.25 16C3.25 8.958 8.958 3.25 16 3.25S28.75 8.958 28.75 16 23.042 28.75 16 28.75 3.25 23.042 3.25 16z" fill="#475161"></path><path d="M16 23.75a1.25 1.25 0 100-2.5 1.25 1.25 0 000 2.5z" fill="#475161"></path><path fill-rule="evenodd" clip-rule="evenodd" d="M14.374 9.574a4.25 4.25 0 112.376 8.11V18a.75.75 0 01-1.5 0v-1a.75.75 0 01.75-.75 2.75 2.75 0 10-2.75-2.75.75.75 0 01-1.5 0 4.25 4.25 0 012.624-3.926z" fill="#475161"></path></svg>