<svg xmlns:xlink="http://www.w3.org/1999/xlink" width="24" height="24" viewBox="0 0 24 24" fill="none" xmlns="http://www.w3.org/2000/svg" class="HelpLarge__icon Icon--original" name="HelpExtraLarge" data-test-id="cs-help-center"><circle cx="12" cy="12" r="11" stroke="#697B9B" stroke-width="2px" fill="#FFFFFF"></circle><path d="M10.626 14.033c0-1.514.96-2.45 1.823-3.35.665-.707 1.262-1.34 1.262-2.167 0-.973-.502-1.606-1.599-1.606-1.114 0-1.892.844-2.013 2.166H8C8.13 6.57 9.797 5 12.216 5 14.791 5 16 6.496 16 8.35c0 1.36-.777 2.24-1.581 3.085-.847.863-1.71 1.644-1.762 2.718v.615h-2.013v-.735h-.018zm-.483 3.498c0-.844.665-1.496 1.477-1.496.795 0 1.443.652 1.443 1.496 0 .826-.648 1.469-1.443 1.469a1.466 1.466 0 01-1.477-1.469z" fill="#697B9B"></path></svg>