<svg xmlns:xlink="http://www.w3.org/1999/xlink" width="24" height="24" viewBox="0 0 24 24" fill="none" xmlns="http://www.w3.org/2000/svg" class="Icon--original" name="Polaris" data-test-id="cs-polaris-icon"><path d="M12.7 6.705c.285-.716 1.315-.716 1.599 0l.026.074 1.026 3.37 3.37 1.026c.815.248.815 1.402 0 1.65l-3.37 1.026-1.026 3.37c-.248.815-1.402.815-1.65 0l-1.027-3.37-3.369-1.026c-.815-.248-.815-1.402 0-1.65l3.37-1.027 1.026-3.369.026-.074zm-.015 3.905a.863.863 0 01-.575.575L9.433 12l2.678.815c.241.073.436.247.537.474l.038.1.815 2.679.815-2.679.037-.1a.863.863 0 01.537-.474L17.568 12l-2.679-.815a.863.863 0 01-.574-.575L13.5 7.933l-.815 2.678z" fill="url(&quot;#Polaris_svg__paint0_linear_11848_85212&quot;)"></path><path d="M7.357 3.433a.15.15 0 01.285 0l.577 1.753a.15.15 0 00.095.095l1.753.576a.15.15 0 010 .285l-1.753.577a.15.15 0 00-.095.095l-.577 1.753a.15.15 0 01-.285 0l-.576-1.753a.15.15 0 00-.095-.095l-1.753-.577a.15.15 0 010-.285l1.753-.576a.15.15 0 00.095-.095l.576-1.753z" fill="url(&quot;#Polaris_svg__paint1_linear_11848_85212&quot;)"></path><path d="M7.357 15.433a.15.15 0 01.285 0l.577 1.753a.15.15 0 00.095.095l1.753.577a.15.15 0 010 .284l-1.753.577a.15.15 0 00-.095.095l-.577 1.753a.15.15 0 01-.285 0l-.576-1.753a.15.15 0 00-.095-.095l-1.753-.577a.15.15 0 010-.284l1.753-.577a.15.15 0 00.095-.095l.576-1.753z" fill="url(&quot;#Polaris_svg__paint2_linear_11848_85212&quot;)"></path><defs><linearGradient id="Polaris_svg__paint0_linear_11848_85212" x1="3.541" y1="2.635" x2="25.745" y2="15.114" gradientUnits="userSpaceOnUse"><stop stop-color="#49A466"></stop><stop offset="0.5" stop-color="#6F83F2"></stop><stop offset="1" stop-color="#8A3DFF"></stop></linearGradient><linearGradient id="Polaris_svg__paint1_linear_11848_85212" x1="3.541" y1="2.635" x2="25.745" y2="15.114" gradientUnits="userSpaceOnUse"><stop stop-color="#49A466"></stop><stop offset="0.5" stop-color="#6F83F2"></stop><stop offset="1" stop-color="#8A3DFF"></stop></linearGradient><linearGradient id="Polaris_svg__paint2_linear_11848_85212" x1="3.541" y1="2.635" x2="25.745" y2="15.114" gradientUnits="userSpaceOnUse"><stop stop-color="#49A466"></stop><stop offset="0.5" stop-color="#6F83F2"></stop><stop offset="1" stop-color="#8A3DFF"></stop></linearGradient><linearGradient id="Polaris_svg__paint0_linear_11848_85212" x1="3.541" y1="2.635" x2="25.745" y2="15.114" gradientUnits="userSpaceOnUse"><stop stop-color="#49A466"></stop><stop offset="0.5" stop-color="#6F83F2"></stop><stop offset="1" stop-color="#8A3DFF"></stop></linearGradient><linearGradient id="Polaris_svg__paint1_linear_11848_85212" x1="3.541" y1="2.635" x2="25.745" y2="15.114" gradientUnits="userSpaceOnUse"><stop stop-color="#49A466"></stop><stop offset="0.5" stop-color="#6F83F2"></stop><stop offset="1" stop-color="#8A3DFF"></stop></linearGradient><linearGradient id="Polaris_svg__paint2_linear_11848_85212" x1="3.541" y1="2.635" x2="25.745" y2="15.114" gradientUnits="userSpaceOnUse"><stop stop-color="#49A466"></stop><stop offset="0.5" stop-color="#6F83F2"></stop><stop offset="1" stop-color="#8A3DFF"></stop></linearGradient></defs></svg>