<svg xmlns:xlink="http://www.w3.org/1999/xlink" width="24" height="24" viewBox="0 0 24 24" fill="none" xmlns="http://www.w3.org/2000/svg" class="Notification__icon Icon--original" name="NotificationAtRest" data-test-id="cs-notification-bell-icon"><path d="M19.3 14.604V8.677C19.3 4.437 16.027 1 11.994 1 7.962 1 4.691 4.438 4.691 8.677v5.927c0 1.073-.83 1.938-1.845 1.938-1.026 0-1.846.864-1.846 1.937C1 19.323 1.644 20 2.445 20h19.11c.8 0 1.445-.677 1.445-1.52 0-1.074-.83-1.938-1.846-1.938-1.035.01-1.855-.865-1.855-1.938zM11.994 23C10.885 23 10 22.313 10 21.473V20h4v1.473c-.012.85-.909 1.527-2.006 1.527z" stroke="#697B9B" stroke-width="2px" stroke-miterlimit="10" fill="none"></path></svg>