<svg xmlns:xlink="http://www.w3.org/1999/xlink" width="32" height="32" viewBox="0 0 32 32" fill="none" xmlns="http://www.w3.org/2000/svg" class="Icon--v2 Icon--medium" name="CaretCircleDoubleLeft" data-test-id="cs-icon"><g fill-rule="evenodd" clip-rule="evenodd" fill="#475161"><path d="M16 4.75C9.787 4.75 4.75 9.787 4.75 16S9.787 27.25 16 27.25 27.25 22.213 27.25 16 22.213 4.75 16 4.75zM3.25 16C3.25 8.958 8.958 3.25 16 3.25S28.75 8.958 28.75 16 23.042 28.75 16 28.75 3.25 23.042 3.25 16z" fill="#475161"></path><path d="M21.53 11.47a.75.75 0 010 1.06L18.06 16l3.47 3.47a.75.75 0 11-1.06 1.06l-4-4a.75.75 0 010-1.06l4-4a.75.75 0 011.06 0zM14.53 11.47a.75.75 0 010 1.06L11.06 16l3.47 3.47a.75.75 0 11-1.06 1.06l-4-4a.75.75 0 010-1.06l4-4a.75.75 0 011.06 0z" fill="#475161"></path></g></svg>