<svg width="63" height="63" viewBox="0 0 63 63" fill="none" xmlns="http://www.w3.org/2000/svg">
<mask id="mask0_43_864" style="mask-type:alpha" maskUnits="userSpaceOnUse" x="0" y="0" width="63" height="63">
<rect width="62.1818" height="62.1818" fill="#D9D9D9"/>
</mask>
<g mask="url(#mask0_43_864)">
<path d="M31.0743 60.947C26.9388 60.947 23.0574 60.1697 19.4301 58.6152C15.8029 57.0607 12.6398 54.934 9.94094 52.2351C7.24207 49.5362 5.11537 46.3682 3.56082 42.731C2.00628 39.0938 1.229 35.2074 1.229 31.0719C1.229 26.9364 2.00628 23.055 3.56082 19.4277C5.11537 15.8004 7.23905 12.6367 9.93187 9.93655C12.6243 7.23682 15.7906 5.11012 19.4308 3.55644C23.071 2.00319 26.9604 1.22656 31.0989 1.22656C35.2379 1.22656 39.1256 2.00319 42.7619 3.55644C46.3983 5.11012 49.5613 7.23682 52.2511 9.93655C54.9409 12.6367 57.0631 15.8054 58.6176 19.4426C60.1722 23.0798 60.9495 26.9662 60.9495 31.1017C60.9495 35.2372 60.1722 39.1186 58.6176 42.7459C57.0631 46.3732 54.9364 49.5362 52.2375 52.2351C49.5387 54.934 46.3706 57.0607 42.7334 58.6152C39.0962 60.1697 35.2099 60.947 31.0743 60.947ZM31.0892 53.822C37.3938 53.822 42.7591 51.6135 47.1853 47.1964C51.6114 42.7794 53.8245 37.4095 53.8245 31.0868C53.8245 24.7822 51.6114 19.4169 47.1853 14.9908C42.7591 10.5646 37.3938 8.35156 31.0892 8.35156C24.7847 8.35156 19.4193 10.5646 14.9932 14.9908C10.5671 19.4169 8.354 24.7822 8.354 31.0868C8.354 37.3913 10.5671 42.7567 14.9932 47.1828C19.4193 51.609 24.7847 53.822 31.0892 53.822ZM31.097 49.6118C25.9532 49.6118 21.5784 47.8115 17.9728 44.211C14.3671 40.6105 12.5642 36.2384 12.5642 31.0946C12.5642 25.9507 14.3645 21.576 17.965 17.9703C21.5655 14.3646 25.9376 12.5618 31.0815 12.5618C36.2253 12.5618 40.6 14.362 44.2057 17.9625C47.8114 21.563 49.6142 25.9352 49.6142 31.079C49.6142 36.2228 47.814 40.5976 44.2135 44.2033C40.613 47.809 36.2408 49.6118 31.097 49.6118ZM31.0808 42.422C34.1955 42.422 36.8648 41.3129 39.0887 39.0946C41.3125 36.8768 42.4245 34.2104 42.4245 31.0952C42.4245 27.9805 41.3153 25.3112 39.0971 23.0874C36.8793 20.8635 34.2128 19.7516 31.0977 19.7516C27.983 19.7516 25.3137 20.868 23.0898 23.101C20.8659 25.3335 19.754 27.9982 19.754 31.0952C19.754 34.2104 20.8631 36.8768 23.0814 39.0946C25.2992 41.3129 27.9657 42.422 31.0808 42.422ZM31.0795 38.2766C29.0996 38.2766 27.408 37.5794 26.0046 36.1851C24.6012 34.7903 23.8995 33.0941 23.8995 31.0965C23.8995 29.1166 24.6044 27.4217 26.0143 26.0119C27.4242 24.602 29.1191 23.897 31.0989 23.897C33.0788 23.897 34.7705 24.602 36.1739 26.0119C37.5773 27.4217 38.279 29.1166 38.279 31.0965C38.279 33.0764 37.5741 34.768 36.1642 36.1715C34.7543 37.5749 33.0594 38.2766 31.0795 38.2766Z" fill="url(#paint0_linear_43_864)"/>
</g>
<defs>
<linearGradient id="paint0_linear_43_864" x1="-4.08085" y1="-1.16694" x2="78.81" y2="54.5317" gradientUnits="userSpaceOnUse">
<stop stop-color="#49A466"/>
<stop offset="0.5" stop-color="#6F83F2"/>
<stop offset="1" stop-color="#8A3DFF"/>
</linearGradient>
</defs>
</svg>
