<svg xmlns:xlink="http://www.w3.org/1999/xlink" width="24" height="24" viewBox="0 0 32 32" fill="none" xmlns="http://www.w3.org/2000/svg"><path fill-rule="evenodd" clip-rule="evenodd" d="M14.844 1.668v4.447h12.444v8.304a9.93 9.93 0 0 0-4.666-1.156c-5.441 0-9.852 4.343-9.852 9.7 0 1.663.425 3.228 1.174 4.596H2.399V7.46l12.445-5.792ZM6.548 24.785h4.148V22.52H6.548v2.264Zm0-6.127h4.148v-2.263H6.548v2.263Zm0-6.127h4.148v-2.263H6.548v2.263Zm12.444-1.498h4.148V8.77h-4.148v2.263Z" fill="url(&quot;#Administration_svg__a&quot;)"></path><path d="M30.266 21.637a.506.506 0 0 0-.252-.344l-1.933-1.085-.008-2.145a.503.503 0 0 0-.184-.388 7.285 7.285 0 0 0-2.38-1.319.525.525 0 0 0-.418.038l-1.95 1.073-1.952-1.075a.524.524 0 0 0-.42-.038c-.87.289-1.677.738-2.377 1.323a.509.509 0 0 0-.183.388l-.01 2.147-1.933 1.084a.517.517 0 0 0-.252.345 6.69 6.69 0 0 0 0 2.652.505.505 0 0 0 .252.344l1.933 1.085.008 2.146a.503.503 0 0 0 .183.388 7.285 7.285 0 0 0 2.38 1.318.525.525 0 0 0 .419-.037l1.952-1.077 1.952 1.075a.52.52 0 0 0 .42.037 7.295 7.295 0 0 0 2.376-1.322.51.51 0 0 0 .184-.387l.01-2.148 1.933-1.084a.517.517 0 0 0 .252-.345 6.69 6.69 0 0 0-.002-2.649Zm-7.125 3.879c-.513 0-1.014-.15-1.44-.43a2.561 2.561 0 0 1-.955-1.146 2.515 2.515 0 0 1-.148-1.474c.1-.495.347-.95.71-1.307.362-.357.824-.6 1.327-.698a2.63 2.63 0 0 1 1.498.145c.474.193.878.52 1.163.94a2.524 2.524 0 0 1-.322 3.222 2.613 2.613 0 0 1-1.833.748Z" fill="url(&quot;#Administration_svg__b&quot;)"></path><defs><linearGradient id="Administration_svg__a" x1="-0.09" y1="0.548" x2="38.716" y2="26.686" gradientUnits="userSpaceOnUse"><stop stop-color="#49A466"></stop><stop offset="0.5" stop-color="#6F83F2"></stop><stop offset="1" stop-color="#8A3DFF"></stop></linearGradient><linearGradient id="Administration_svg__b" x1="-0.09" y1="0.548" x2="38.716" y2="26.686" gradientUnits="userSpaceOnUse"><stop stop-color="#49A466"></stop><stop offset="0.5" stop-color="#6F83F2"></stop><stop offset="1" stop-color="#8A3DFF"></stop></linearGradient><linearGradient id="Administration_svg__a" x1="-0.09" y1="0.548" x2="38.716" y2="26.686" gradientUnits="userSpaceOnUse"><stop stop-color="#49A466"></stop><stop offset="0.5" stop-color="#6F83F2"></stop><stop offset="1" stop-color="#8A3DFF"></stop></linearGradient><linearGradient id="Administration_svg__b" x1="-0.09" y1="0.548" x2="38.716" y2="26.686" gradientUnits="userSpaceOnUse"><stop stop-color="#49A466"></stop><stop offset="0.5" stop-color="#6F83F2"></stop><stop offset="1" stop-color="#8A3DFF"></stop></linearGradient></defs></svg>