<svg xmlns:xlink="http://www.w3.org/1999/xlink" width="32" height="32" viewBox="0 0 32 32" fill="none" xmlns="http://www.w3.org/2000/svg" class="TopNavbar__Icon-margin-r4 Icon--v2 Icon--small" name="PersonalizeAttributesDefault" data-test-id="cs-icon"><path d="M25.991 15.28a.719.719 0 101.434 0c0-1.481-.29-2.948-.855-4.317a11.284 11.284 0 00-2.435-3.66A11.196 11.196 0 0016.191 4a.719.719 0 00-.717.721c0 .398.32.72.717.72a9.767 9.767 0 016.93 2.882 9.875 9.875 0 012.87 6.958zM6.39 15.28a.719.719 0 00-.717-.72.719.719 0 00-.717.72c0 1.481.29 2.948.855 4.317a11.284 11.284 0 002.436 3.66 11.197 11.197 0 007.944 3.304.719.719 0 00.717-.721.719.719 0 00-.717-.72 9.767 9.767 0 01-6.93-2.882 9.874 9.874 0 01-2.87-6.958z" fill="currentColor" stroke="currentColor"></path><path fill-rule="evenodd" clip-rule="evenodd" d="M11.65 20.08c0-2.515 2.03-4.56 4.536-4.56a4.545 4.545 0 014.526 4.242l.019.268a.722.722 0 01-.716.77h-7.649a.719.719 0 01-.717-.72zm1.517-.72h6.04a3.106 3.106 0 00-3.02-2.4 3.11 3.11 0 00-3.02 2.4zM16.19 9.76a2.635 2.635 0 00-2.629 2.64 2.635 2.635 0 002.63 2.64 2.635 2.635 0 002.63-2.64 2.635 2.635 0 00-2.63-2.64zm-1.194 2.64c0-.663.535-1.2 1.195-1.2s1.195.537 1.195 1.2c0 .663-.535 1.2-1.195 1.2s-1.195-.537-1.195-1.2zM4 6.64c0-.928.75-1.68 1.673-1.68h3.825c.924 0 1.673.752 1.673 1.68v3.84c0 .928-.749 1.68-1.673 1.68H5.673A1.677 1.677 0 014 10.48V6.64zm1.673-.24a.24.24 0 00-.239.24v3.84c0 .133.107.24.24.24h3.824a.24.24 0 00.239-.24V6.64a.24.24 0 00-.24-.24H5.674zM25.29 21.16a1.67 1.67 0 00-2.899 0l-2.484 4.32c-.644 1.12.16 2.52 1.449 2.52h4.968c1.288 0 2.093-1.4 1.45-2.52l-2.485-4.32zm-1.657.72a.239.239 0 01.414 0l2.484 4.32a.24.24 0 01-.207.36h-4.968a.24.24 0 01-.207-.36l2.484-4.32z" fill="currentColor" stroke="currentColor"></path></svg>