<svg xmlns="http://www.w3.org/2000/svg" width="119" height="32" viewBox="0 0 119 32" fill="none">
  <path d="M15.967 31.1L2.134 20.3l3.433-2.633 10.4 8.1 10.467-8.1 3.433 2.633-13.9 10.8zm0-8.666L2.134 11.667 15.967.9 29.8 11.667 15.967 22.434z" fill="url(#ProductLogoHeadlessCMS_svg__paint0_linear)"></path>
  <path d="M44.188 13.131c-.496 0-.974-.09-1.433-.273a3.681 3.681 0 01-1.192-.798 3.89 3.89 0 01-.809-1.258 4.5 4.5 0 01-.295-1.672c0-.613.102-1.163.306-1.651.204-.496.478-.911.82-1.247a3.737 3.737 0 012.602-1.05c.445 0 .86.063 1.247.187.394.123.736.302 1.028.535.298.226.546.503.743.831.197.32.328.678.394 1.072H46.34a1.962 1.962 0 00-.765-1.083c-.379-.277-.842-.415-1.389-.415-.335 0-.648.069-.94.208-.291.13-.547.32-.765.568-.212.24-.38.536-.503.886a3.391 3.391 0 00-.186 1.159c0 .43.062.823.186 1.18.124.35.291.653.503.908.218.248.474.44.765.58.292.138.605.207.94.207.547 0 1.006-.135 1.378-.405.372-.27.634-.634.787-1.093h1.258a3.1 3.1 0 01-.416 1.104 2.96 2.96 0 01-.743.82c-.292.226-.63.401-1.017.525a4.294 4.294 0 01-1.246.175zm7.242-.01c-.4 0-.78-.07-1.137-.209a2.76 2.76 0 01-.919-.59 2.968 2.968 0 01-.612-.951 3.245 3.245 0 01-.23-1.247c0-.437.077-.834.23-1.191.153-.365.357-.67.612-.919a2.76 2.76 0 01.919-.59 2.98 2.98 0 011.137-.219c.408 0 .787.07 1.137.208.357.139.663.335.918.59.263.248.467.554.613.919.153.364.23.765.23 1.202 0 .452-.077.864-.23 1.236-.153.372-.361.689-.623.951a2.876 2.876 0 01-2.045.81zm0-1.04c.496 0 .9-.178 1.214-.535.313-.365.47-.838.47-1.421 0-.547-.157-.995-.47-1.345-.314-.357-.718-.536-1.214-.536-.503 0-.911.179-1.225.536-.306.35-.459.798-.459 1.345 0 .575.157 1.046.47 1.41.314.364.718.547 1.214.547zm5.395-2.197V13h-1.18V7.337h1.169v.7c.175-.263.408-.467.7-.613.291-.146.623-.219.995-.219.627 0 1.122.197 1.487.59.371.387.557.945.557 1.674V13h-1.18V9.61c0-.415-.11-.746-.329-.994-.218-.255-.52-.383-.907-.383-.35 0-.656.139-.919.416-.262.27-.393.681-.393 1.235zm7.171 3.127c-.444 0-.809-.098-1.093-.295-.277-.197-.415-.605-.415-1.225V8.288h-.984v-.951h.984V5.98h1.17v1.356h1.355v.95h-1.355v3.04c0 .306.05.503.153.59.109.088.273.132.492.132h.71v.94c-.204.007-.371.011-.503.011-.124.007-.295.01-.514.01zm7.245-1.63a2.244 2.244 0 01-.404.788 2.343 2.343 0 01-.635.536c-.233.138-.488.24-.765.306-.277.073-.554.11-.83.11-.394 0-.766-.07-1.116-.209a2.76 2.76 0 01-.918-.59 2.755 2.755 0 01-.624-.94 3.278 3.278 0 01-.23-1.258c0-.444.077-.845.23-1.202.16-.365.368-.674.624-.93.262-.255.56-.448.896-.579a2.855 2.855 0 012.11-.01c.336.123.627.313.875.568.255.247.46.565.612.95.153.387.23.832.23 1.335v.273h-4.363c.051.488.24.875.569 1.159.328.284.707.426 1.137.426.284 0 .558-.054.82-.164a1.17 1.17 0 00.601-.568h1.181zm-2.733-3.18c-.401 0-.755.123-1.06.371-.3.248-.475.587-.526 1.017h3.138c-.029-.416-.19-.751-.48-1.006-.292-.255-.65-.383-1.072-.383zm5.27 1.683V13h-1.182V7.337h1.17v.7c.175-.263.408-.467.7-.613.291-.146.623-.219.995-.219.627 0 1.122.197 1.487.59.372.387.557.945.557 1.674V13h-1.18V9.61c0-.415-.11-.746-.328-.994-.219-.255-.522-.383-.908-.383-.35 0-.656.139-.918.416-.263.27-.394.681-.394 1.235zm7.17 3.127c-.444 0-.808-.098-1.093-.295-.277-.197-.415-.605-.415-1.225V8.288h-.984v-.951h.984V5.98h1.17v1.356h1.356v.95H80.61v3.04c0 .306.05.503.153.59.11.088.273.132.492.132h.71v.94c-.204.007-.371.011-.502.011-.124.007-.296.01-.514.01zm4.323.12c-.321 0-.627-.04-.919-.12a2.622 2.622 0 01-.765-.35 2.06 2.06 0 01-.547-.601 2.019 2.019 0 01-.262-.853h1.137c.05.335.207.58.47.732.262.146.565.22.907.22.292 0 .558-.06.799-.176.24-.116.36-.299.36-.546 0-.226-.105-.394-.317-.503-.211-.117-.514-.212-.907-.285l-.558-.098c-.546-.095-.977-.273-1.29-.536-.313-.262-.47-.612-.47-1.05 0-.276.058-.524.175-.743.116-.219.273-.404.47-.557.204-.154.44-.27.71-.35.27-.08.555-.12.853-.12.292 0 .573.04.842.12.27.073.507.186.711.339.211.145.383.328.514.546.138.219.226.467.262.744H86.32a.917.917 0 00-.437-.58c-.219-.13-.485-.197-.798-.197-.3 0-.55.066-.755.197-.204.124-.306.292-.306.503a.47.47 0 00.252.438c.167.094.419.17.754.23l.558.098c.605.109 1.09.295 1.454.557.364.255.546.63.546 1.126 0 .292-.065.55-.196.776a1.666 1.666 0 01-.514.57c-.212.152-.46.269-.744.349a3.09 3.09 0 01-.864.12zm5.431-.12c-.445 0-.809-.098-1.093-.295-.277-.197-.416-.605-.416-1.225V8.288h-.984v-.951h.984V5.98h1.17v1.356h1.356v.95h-1.356v3.04c0 .306.051.503.153.59.11.088.273.132.492.132h.71v.94c-.203.007-.37.011-.502.011-.124.007-.295.01-.514.01zM96.457 13l-.021-.743a1.88 1.88 0 01-.733.634c-.299.153-.66.23-1.082.23-.263 0-.518-.037-.766-.11a2.11 2.11 0 01-.656-.317 1.673 1.673 0 01-.459-.547 1.579 1.579 0 01-.175-.754c0-.613.233-1.05.7-1.312.474-.263 1.079-.452 1.815-.569l1.279-.207V9.25c0-.394-.106-.674-.317-.842-.204-.168-.489-.251-.853-.251-.357 0-.645.083-.864.251-.218.168-.36.408-.426.722H92.75c.073-.59.343-1.057.809-1.4.466-.35 1.024-.525 1.673-.525.328 0 .63.037.907.11.284.073.529.19.733.35.204.16.36.375.47.645.117.262.175.586.175.973l-.022 2.58c0 .087.004.215.01.383.008.16.023.411.045.754h-1.094zm-2.722-1.662a.71.71 0 00.306.612c.212.139.478.208.798.208.416 0 .773-.127 1.072-.383.299-.255.448-.634.448-1.137v-.404c-.926.117-1.596.248-2.012.393-.408.139-.612.376-.612.711zm7.834 1.782c-.393 0-.762-.069-1.104-.207a2.805 2.805 0 01-.897-.602 2.92 2.92 0 01-.59-.951 3.357 3.357 0 01-.219-1.236c0-.422.073-.812.219-1.17.153-.364.357-.674.612-.929a2.806 2.806 0 012.001-.82c.321 0 .631.051.929.153.307.102.576.248.809.438.234.182.427.404.58.667.153.262.244.55.273.863h-1.17a1.296 1.296 0 00-.524-.787 1.505 1.505 0 00-.908-.295c-.474 0-.86.179-1.159.536-.299.357-.448.805-.448 1.345 0 .56.153 1.027.459 1.399.306.372.689.558 1.148.558.328 0 .623-.091.886-.274.269-.19.452-.463.546-.82h1.17a2.23 2.23 0 01-.317.908c-.16.262-.361.484-.601.667-.233.182-.499.32-.798.415a2.887 2.887 0 01-.897.142zm7.647-.12l-1.629-2.733-.984.984V13h-1.17V5.128h1.17v4.68l2.405-2.471h1.531l-2.11 2.099L110.594 13h-1.378zM40.929 26v-7.653h.766v3.367h4.57v-3.367h.776V26h-.776v-3.619h-4.57V26h-.766zm12.886-1.618c-.16.561-.481.991-.962 1.29a2.985 2.985 0 01-1.608.448c-.386 0-.747-.069-1.082-.207a2.634 2.634 0 01-.875-.613 3.055 3.055 0 01-.58-.94 3.515 3.515 0 01-.207-1.235c0-.46.073-.872.219-1.236.153-.364.353-.67.601-.918s.536-.438.864-.569a2.686 2.686 0 011.006-.197c.35 0 .685.062 1.006.186.328.124.612.31.852.558.24.24.434.546.58.918.146.365.218.784.218 1.258v.196h-4.613c.029.634.233 1.156.612 1.564.379.408.853.612 1.421.612.423 0 .791-.095 1.104-.284.321-.19.562-.467.722-.831h.722zm-2.635-3.564a1.95 1.95 0 00-.71.13 1.968 1.968 0 00-1.039.984c-.11.234-.176.5-.197.799h3.87c-.03-.59-.23-1.057-.601-1.4a1.886 1.886 0 00-1.323-.513zM58.935 26l-.011-1.05c-.16.328-.408.605-.743.831-.328.226-.751.34-1.269.34-.248 0-.492-.034-.732-.1a2.09 2.09 0 01-.645-.294 1.597 1.597 0 01-.46-.525 1.573 1.573 0 01-.164-.733c0-.313.07-.576.208-.787.146-.211.346-.386.602-.525.255-.138.56-.251.918-.339a11.67 11.67 0 011.203-.24l1.038-.164v-.219c0-.488-.135-.842-.404-1.06-.27-.226-.63-.34-1.083-.34-.422 0-.783.11-1.082.329a1.32 1.32 0 00-.536.874h-.71c.036-.277.12-.524.251-.743.139-.226.313-.415.525-.569.211-.153.452-.27.721-.35.27-.087.554-.13.853-.13.634 0 1.156.152 1.564.459.408.306.612.82.612 1.541l-.022 2.526c0 .08.004.207.011.382.007.175.022.47.044.886h-.69zm-3.313-1.564c0 .365.142.638.426.82.285.175.613.263.984.263.525 0 .963-.168 1.313-.503.357-.343.535-.81.535-1.4v-.623c-1.137.146-1.964.314-2.482.503-.517.183-.776.496-.776.94zM65.582 26v-1.214c-.146.365-.405.678-.777.94a2.114 2.114 0 01-1.268.394 2.66 2.66 0 01-1.017-.197 2.629 2.629 0 01-.83-.579 2.845 2.845 0 01-.558-.94 3.708 3.708 0 01-.208-1.28c0-.451.07-.86.208-1.224.145-.364.339-.67.58-.918.24-.248.517-.438.83-.569.32-.138.652-.208.995-.208.481 0 .904.117 1.268.35.365.233.623.525.776.875v-3.302h.722V26h-.721zm-1.947-.503c.248 0 .489-.051.722-.153a1.86 1.86 0 00.623-.448c.182-.197.328-.445.438-.744.116-.299.174-.641.174-1.027a2.89 2.89 0 00-.163-1.017 1.963 1.963 0 00-.438-.71 1.771 1.771 0 00-.634-.427 1.9 1.9 0 00-.722-.143 1.82 1.82 0 00-1.4.624c-.378.415-.568.973-.568 1.672 0 .73.19 1.309.569 1.739.379.423.845.634 1.4.634zM68.1 26v-7.872h.722V26H68.1zm7.42-1.618c-.16.561-.48.991-.961 1.29a2.985 2.985 0 01-1.608.448c-.386 0-.747-.069-1.082-.207a2.634 2.634 0 01-.875-.613 3.053 3.053 0 01-.58-.94 3.515 3.515 0 01-.207-1.235c0-.46.073-.872.219-1.236a2.83 2.83 0 01.601-.918c.248-.248.536-.438.864-.569a2.686 2.686 0 011.006-.197c.35 0 .685.062 1.006.186.328.124.612.31.852.558.241.24.434.546.58.918.146.365.219.784.219 1.258v.196H70.94c.029.634.233 1.156.612 1.564.379.408.853.612 1.421.612.423 0 .791-.095 1.105-.284.32-.19.56-.467.721-.831h.722zm-2.634-3.564a1.95 1.95 0 00-.71.13 1.97 1.97 0 00-1.039.984c-.11.234-.175.5-.197.799h3.87c-.029-.59-.23-1.057-.601-1.4a1.887 1.887 0 00-1.323-.513zm5.995 5.313c-.306 0-.598-.044-.875-.131a2.37 2.37 0 01-.722-.35 2.094 2.094 0 01-.524-.58 1.904 1.904 0 01-.252-.797h.7c.058.393.244.7.558.918.32.219.696.328 1.126.328.182 0 .36-.022.535-.066.183-.043.34-.105.47-.186.132-.087.237-.193.318-.317a.79.79 0 00.13-.448.738.738 0 00-.37-.667c-.249-.16-.584-.284-1.007-.372l-.634-.13c-.517-.103-.926-.27-1.225-.504-.291-.24-.437-.568-.437-.984 0-.247.055-.473.164-.677.11-.205.255-.376.438-.514a2.15 2.15 0 01.656-.34c.255-.08.52-.12.798-.12.56 0 1.046.15 1.454.449.415.291.656.688.721 1.191h-.688a1.239 1.239 0 00-.514-.754c-.27-.19-.602-.284-.995-.284-.372 0-.689.095-.951.284-.263.182-.394.42-.394.71 0 .263.102.463.306.602.212.131.503.233.875.306l.634.142c.569.117 1.02.3 1.356.547.342.24.514.59.514 1.05 0 .27-.062.51-.186.721-.117.211-.277.39-.481.536a2.216 2.216 0 01-.69.317c-.262.08-.531.12-.808.12zm5.522 0c-.306 0-.597-.044-.874-.131-.27-.08-.51-.197-.722-.35a2.096 2.096 0 01-.525-.58 1.905 1.905 0 01-.251-.797h.7c.058.393.244.7.557.918.32.219.696.328 1.126.328.183 0 .361-.022.536-.066.182-.043.339-.105.47-.186.131-.087.237-.193.317-.317a.79.79 0 00.131-.448.738.738 0 00-.371-.667c-.248-.16-.583-.284-1.006-.372l-.634-.13c-.518-.103-.926-.27-1.225-.504-.291-.24-.437-.568-.437-.984 0-.247.055-.473.164-.677.11-.205.255-.376.437-.514a2.15 2.15 0 01.656-.34c.255-.08.521-.12.798-.12.561 0 1.046.15 1.454.449.416.291.656.688.722 1.191h-.689a1.239 1.239 0 00-.514-.754c-.27-.19-.601-.284-.995-.284-.371 0-.688.095-.95.284-.263.182-.394.42-.394.71 0 .263.102.463.306.602.211.131.503.233.874.306l.635.142c.568.117 1.02.3 1.355.547.343.24.514.59.514 1.05 0 .27-.062.51-.186.721-.116.211-.277.39-.48.536a2.216 2.216 0 01-.69.317c-.262.08-.532.12-.809.12zm9.806 0a3.5 3.5 0 01-2.558-1.082 3.976 3.976 0 01-.787-1.268 4.59 4.59 0 01-.284-1.651c0-.605.098-1.152.295-1.64.204-.496.47-.912.798-1.247a3.479 3.479 0 011.159-.787 3.6 3.6 0 011.378-.273c.408 0 .794.058 1.159.175.371.116.703.284.994.502a2.878 2.878 0 011.17 1.837h-.765a2.316 2.316 0 00-.951-1.334 2.725 2.725 0 00-1.607-.491c-.38 0-.74.076-1.083.23a2.753 2.753 0 00-.907.655c-.255.284-.46.627-.613 1.028-.153.4-.23.849-.23 1.345 0 .48.074.925.22 1.334.153.408.357.758.612 1.05.255.29.554.52.896.688.35.16.718.24 1.105.24.612 0 1.144-.164 1.596-.492.459-.335.78-.787.962-1.355h.765a3.202 3.202 0 01-.437 1.05 3.11 3.11 0 01-.743.797c-.285.22-.61.39-.974.514a3.818 3.818 0 01-1.17.175zM102.56 26l-2.832-7.107V26h-.732v-7.653h1.268l2.711 6.833 2.701-6.833h1.235V26h-.743v-7.107L103.347 26h-.787zm8.753.131c-.408 0-.787-.05-1.137-.153a2.885 2.885 0 01-.919-.47 2.517 2.517 0 01-.634-.765 2.794 2.794 0 01-.284-1.083h.754c.066.59.299 1.043.7 1.356.401.306.908.46 1.52.46.27 0 .528-.03.776-.088.255-.066.478-.16.667-.285.19-.123.339-.277.448-.459.117-.19.175-.4.175-.634 0-.43-.171-.747-.514-.951-.342-.211-.787-.383-1.333-.514l-.853-.197c-.678-.16-1.199-.397-1.564-.71-.357-.314-.535-.748-.535-1.302 0-.32.072-.612.218-.874a2.08 2.08 0 01.58-.678 2.74 2.74 0 01.863-.437c.328-.11.675-.164 1.039-.164.758 0 1.385.197 1.881.59.495.394.779.951.852 1.673h-.754c-.066-.489-.27-.875-.612-1.16-.343-.29-.798-.436-1.367-.436-.255 0-.503.036-.743.109a2.11 2.11 0 00-.635.284 1.514 1.514 0 00-.426.46 1.13 1.13 0 00-.153.579c0 .393.135.685.405.875.269.189.656.342 1.158.459l.93.23c.7.16 1.261.397 1.684.71.43.313.645.776.645 1.389 0 .364-.084.685-.252.962-.16.277-.372.506-.634.689-.262.174-.565.31-.907.404a4.104 4.104 0 01-1.039.131z" fill="#6C5CE7"></path>
  <defs>
    <linearGradient id="ProductLogoHeadlessCMS_svg__paint0_linear" x1="-0.332" y1="-0.31" x2="40.134" y2="24.66" gradientUnits="userSpaceOnUse">
      <stop stop-color="#49A466"></stop>
      <stop offset="0.5" stop-color="#6F83F2"></stop>
      <stop offset="1" stop-color="#8A3DFF"></stop>
    </linearGradient>
  </defs>
</svg>
