<svg width="115" height="32" viewBox="0 0 115 32" fill="none" xmlns="http://www.w3.org/2000/svg" class="Icon--original" name="ProductLogoMarketplace" data-test-id="cs-icon"><mask id="ProductLogoMarketplace_svg__a" maskUnits="userSpaceOnUse" x="0" y="0" width="32" height="32" style="mask-type: alpha;"><path fill="#D9D9D9" d="M0 0h32v32H0z"></path></mask><g mask="url(#ProductLogoMarketplace_svg__a)"><mask id="ProductLogoMarketplace_svg__b" maskUnits="userSpaceOnUse" x="2" y="0" width="29" height="29" style="mask-type: alpha;"><path fill="#D9D9D9" d="M2.334.141h28v28h-28z"></path></mask><g mask="url(#ProductLogoMarketplace_svg__b)"><mask id="ProductLogoMarketplace_svg__c" maskUnits="userSpaceOnUse" x="2" y="2" width="28" height="28" style="mask-type: alpha;"><path fill="#D9D9D9" d="M2 2h28v28H2z"></path></mask><g mask="url(#ProductLogoMarketplace_svg__c)"><path d="M5.996 9.001V5.326h20.008v3.675H5.996zm-.01 17.675v-7H4.684v-3.675l1.312-5.833h20.008L27.317 16v3.675h-1.313v7H22.33v-7h-3.325v7H5.986zm3.685-3.675h5.658v-3.325H9.671v3.325z" fill="url(#ProductLogoMarketplace_svg__paint0_linear_11830_10530)"></path></g></g></g><path d="M44.188 13.131c-.496 0-.974-.09-1.433-.273a3.681 3.681 0 01-1.192-.798 3.89 3.89 0 01-.809-1.258 4.5 4.5 0 01-.295-1.672c0-.613.102-1.163.306-1.651.204-.496.478-.911.82-1.247a3.737 3.737 0 012.602-1.05c.445 0 .86.063 1.247.187.394.123.736.302 1.028.535.298.226.546.503.743.831.197.32.328.678.394 1.072H46.34a1.962 1.962 0 00-.765-1.083c-.379-.277-.842-.415-1.389-.415-.335 0-.648.069-.94.208-.291.13-.547.32-.765.568-.212.24-.38.536-.503.886a3.391 3.391 0 00-.186 1.159c0 .43.062.823.186 1.18.124.35.291.653.503.908.218.248.474.44.765.58.292.138.605.207.94.207.547 0 1.006-.135 1.378-.405.372-.27.634-.634.787-1.093h1.258a3.1 3.1 0 01-.416 1.104 2.96 2.96 0 01-.743.82c-.292.226-.63.401-1.017.525a4.294 4.294 0 01-1.246.175zm7.242-.01c-.4 0-.78-.07-1.137-.209a2.76 2.76 0 01-.919-.59 2.968 2.968 0 01-.612-.951 3.245 3.245 0 01-.23-1.247c0-.437.077-.834.23-1.191.153-.365.357-.67.612-.919a2.76 2.76 0 01.919-.59 2.98 2.98 0 011.137-.219c.408 0 .787.07 1.137.208.357.139.663.335.918.59.263.248.467.554.613.919.153.364.23.765.23 1.202 0 .452-.077.864-.23 1.236-.153.372-.361.689-.623.951a2.876 2.876 0 01-2.045.81zm0-1.04c.496 0 .9-.178 1.214-.535.313-.365.47-.838.47-1.421 0-.547-.157-.995-.47-1.345-.314-.357-.718-.536-1.214-.536-.503 0-.911.179-1.225.536-.306.35-.459.798-.459 1.345 0 .575.157 1.046.47 1.41.314.364.718.547 1.214.547zm5.395-2.197V13h-1.18V7.337h1.169v.7c.175-.263.408-.467.7-.613.291-.146.623-.219.995-.219.627 0 1.122.197 1.487.59.371.387.557.945.557 1.674V13h-1.18V9.61c0-.415-.11-.746-.329-.994-.218-.255-.52-.383-.907-.383-.35 0-.656.139-.919.416-.262.27-.393.681-.393 1.235zm7.171 3.127c-.444 0-.809-.098-1.093-.295-.277-.197-.415-.605-.415-1.225V8.288h-.984v-.951h.984V5.98h1.17v1.356h1.355v.95h-1.355v3.04c0 .306.05.503.153.59.109.088.273.132.492.132h.71v.94c-.204.007-.371.011-.503.011-.124.007-.295.01-.514.01zm7.245-1.63a2.244 2.244 0 01-.404.788 2.343 2.343 0 01-.635.536c-.233.138-.488.24-.765.306-.277.073-.554.11-.83.11-.394 0-.766-.07-1.116-.209a2.76 2.76 0 01-.918-.59 2.755 2.755 0 01-.624-.94 3.278 3.278 0 01-.23-1.258c0-.444.077-.845.23-1.202.16-.365.368-.674.624-.93.262-.255.56-.448.896-.579a2.855 2.855 0 012.11-.01c.336.123.627.313.875.568.255.247.46.565.612.95.153.387.23.832.23 1.335v.273h-4.363c.051.488.24.875.569 1.159.328.284.707.426 1.137.426.284 0 .558-.054.82-.164a1.17 1.17 0 00.601-.568h1.181zm-2.733-3.18c-.401 0-.755.123-1.06.371-.3.248-.475.587-.526 1.017h3.138c-.029-.416-.19-.751-.48-1.006-.292-.255-.65-.383-1.072-.383zm5.27 1.683V13h-1.182V7.337h1.17v.7c.175-.263.408-.467.7-.613.291-.146.623-.219.995-.219.627 0 1.122.197 1.487.59.372.387.557.945.557 1.674V13h-1.18V9.61c0-.415-.11-.746-.328-.994-.219-.255-.522-.383-.908-.383-.35 0-.656.139-.918.416-.263.27-.394.681-.394 1.235zm7.17 3.127c-.444 0-.808-.098-1.093-.295-.277-.197-.415-.605-.415-1.225V8.288h-.984v-.951h.984V5.98h1.17v1.356h1.356v.95H80.61v3.04c0 .306.05.503.153.59.11.088.273.132.492.132h.71v.94c-.204.007-.371.011-.502.011-.124.007-.296.01-.514.01zm4.323.12c-.321 0-.627-.04-.919-.12a2.622 2.622 0 01-.765-.35 2.06 2.06 0 01-.547-.601 2.019 2.019 0 01-.262-.853h1.137c.05.335.207.58.47.732.262.146.565.22.907.22.292 0 .558-.06.799-.176.24-.116.36-.299.36-.546 0-.226-.105-.394-.317-.503-.211-.117-.514-.212-.907-.285l-.558-.098c-.546-.095-.977-.273-1.29-.536-.313-.262-.47-.612-.47-1.05 0-.276.058-.524.175-.743.116-.219.273-.404.47-.557.204-.154.44-.27.71-.35.27-.08.555-.12.853-.12.292 0 .573.04.842.12.27.073.507.186.711.339.211.145.383.328.514.546.138.219.226.467.262.744H86.32a.917.917 0 00-.437-.58c-.219-.13-.485-.197-.798-.197-.3 0-.55.066-.755.197-.204.124-.306.292-.306.503a.47.47 0 00.252.438c.167.094.419.17.754.23l.558.098c.605.109 1.09.295 1.454.557.364.255.546.63.546 1.126 0 .292-.065.55-.196.776a1.666 1.666 0 01-.514.57c-.212.152-.46.269-.744.349a3.09 3.09 0 01-.864.12zm5.431-.12c-.445 0-.809-.098-1.093-.295-.277-.197-.416-.605-.416-1.225V8.288h-.984v-.951h.984V5.98h1.17v1.356h1.356v.95h-1.356v3.04c0 .306.051.503.153.59.11.088.273.132.492.132h.71v.94c-.203.007-.37.011-.502.011-.124.007-.295.01-.514.01zM96.457 13l-.021-.743a1.88 1.88 0 01-.733.634c-.299.153-.66.23-1.082.23-.263 0-.518-.037-.766-.11a2.11 2.11 0 01-.656-.317 1.673 1.673 0 01-.459-.547 1.579 1.579 0 01-.175-.754c0-.613.233-1.05.7-1.312.474-.263 1.079-.452 1.815-.569l1.279-.207V9.25c0-.394-.106-.674-.317-.842-.204-.168-.489-.251-.853-.251-.357 0-.645.083-.864.251-.218.168-.36.408-.426.722H92.75c.073-.59.343-1.057.809-1.4.466-.35 1.024-.525 1.673-.525.328 0 .63.037.907.11.284.073.529.19.733.35.204.16.36.375.47.645.117.262.175.586.175.973l-.022 2.58c0 .087.004.215.01.383.008.16.023.411.045.754h-1.094zm-2.722-1.662a.71.71 0 00.306.612c.211.139.478.208.798.208.416 0 .773-.127 1.072-.383.299-.255.448-.634.448-1.137v-.404c-.926.117-1.596.248-2.012.393-.408.139-.612.376-.612.711zm7.834 1.782c-.393 0-.762-.069-1.104-.207a2.805 2.805 0 01-.897-.602 2.92 2.92 0 01-.59-.951 3.357 3.357 0 01-.219-1.236c0-.422.073-.812.219-1.17.153-.364.357-.674.612-.929a2.808 2.808 0 012.001-.82c.321 0 .631.051.929.153.307.102.576.248.809.438.234.182.427.404.58.667.153.262.244.55.273.863h-1.17a1.296 1.296 0 00-.524-.787 1.505 1.505 0 00-.908-.295c-.474 0-.86.179-1.159.536-.299.357-.448.805-.448 1.345 0 .56.153 1.027.459 1.399.306.372.689.558 1.148.558.328 0 .623-.091.886-.274.269-.19.452-.463.546-.82h1.17a2.23 2.23 0 01-.317.908c-.16.262-.361.484-.601.667-.233.182-.499.32-.798.415a2.887 2.887 0 01-.897.142zm7.647-.12l-1.629-2.733-.984.984V13h-1.17V5.128h1.17v4.68l2.405-2.471h1.531l-2.11 2.099L110.594 13h-1.378zM44.494 26l-2.832-7.107V26h-.733v-7.653h1.269l2.711 6.833 2.7-6.833h1.236V26h-.743v-7.107L45.28 26h-.787zm9.9 0l-.01-1.05c-.16.328-.409.605-.744.831-.328.226-.75.34-1.268.34-.248 0-.492-.034-.733-.1a2.089 2.089 0 01-.645-.294 1.596 1.596 0 01-.459-.525 1.573 1.573 0 01-.164-.733c0-.313.07-.576.208-.787.146-.211.346-.386.601-.525.255-.138.561-.251.919-.339.364-.094.765-.175 1.202-.24l1.039-.164v-.219c0-.488-.135-.842-.405-1.06-.27-.226-.63-.34-1.082-.34-.423 0-.784.11-1.082.329a1.32 1.32 0 00-.536.874h-.71c.036-.277.12-.524.25-.743.14-.226.314-.415.526-.569a2.37 2.37 0 01.721-.35c.27-.087.554-.13.853-.13.634 0 1.155.152 1.563.459.408.306.613.82.613 1.541l-.022 2.526c0 .08.003.207.01.382l.044.886h-.688zm-3.312-1.564c0 .365.142.638.426.82.284.175.612.263.984.263.525 0 .962-.168 1.312-.503.357-.343.536-.81.536-1.4v-.623c-1.137.146-1.964.314-2.482.503-.517.183-.776.496-.776.94zm6.417-1.705V26h-.722v-5.663h.722v1.093a2.11 2.11 0 01.197-.35c.08-.124.178-.233.295-.328.175-.16.36-.273.557-.339.197-.073.412-.11.645-.11.052 0 .102.004.154.012.058 0 .112.003.163.01v.7a3.65 3.65 0 00-.25-.01h-.165c-.168 0-.346.029-.536.087a1.558 1.558 0 00-.514.284c-.153.131-.284.31-.393.536-.102.218-.153.488-.153.809zM64.484 26l-1.903-3.192-1.257 1.18V26h-.722v-7.872h.722v5.018l2.908-2.81h.951l-2.077 1.969L65.336 26h-.852zm6.571-1.618c-.16.561-.48.991-.962 1.29a2.985 2.985 0 01-1.607.448c-.386 0-.747-.069-1.083-.207a2.634 2.634 0 01-.874-.613 3.055 3.055 0 01-.58-.94 3.515 3.515 0 01-.207-1.235c0-.46.072-.872.218-1.236.153-.364.354-.67.602-.918.247-.248.535-.438.863-.569a2.686 2.686 0 011.006-.197c.35 0 .685.062 1.006.186.328.124.612.31.853.558.24.24.433.546.58.918.145.365.218.784.218 1.258v.196h-4.614c.03.634.233 1.156.612 1.564.38.408.853.612 1.422.612.422 0 .79-.095 1.104-.284.32-.19.561-.467.722-.831h.721zm-2.635-3.564a1.95 1.95 0 00-.71.13 1.968 1.968 0 00-1.039.984c-.11.234-.175.5-.197.799h3.87c-.029-.59-.23-1.057-.6-1.4a1.886 1.886 0 00-1.324-.513zm5.756 5.193c-.437 0-.78-.087-1.028-.262-.24-.175-.36-.518-.36-1.028v-3.794H71.76v-.59h1.027v-1.345h.711v1.345h1.585v.59h-1.585v3.684c0 .321.066.536.197.645.138.11.353.165.645.165h.404c.124-.008.237-.011.34-.011v.58c-.161.006-.307.01-.438.01-.131.007-.288.01-.47.01zm4.949.11a2.2 2.2 0 01-2.045-1.29v3.246h-.721v-7.74h.721v1.115c.153-.357.408-.653.766-.886.357-.24.787-.36 1.29-.36.357 0 .692.065 1.005.196.314.124.587.31.82.558.241.248.43.554.569.918.138.365.208.78.208 1.247 0 .48-.073.907-.219 1.279a2.749 2.749 0 01-.569.94c-.233.255-.51.448-.83.58a2.55 2.55 0 01-.995.196zm-.099-.624c.547 0 1.01-.211 1.389-.634.386-.423.58-1.002.58-1.738 0-.722-.194-1.283-.58-1.684a1.823 1.823 0 00-1.389-.613 2.01 2.01 0 00-.743.143 1.796 1.796 0 00-.623.426c-.175.19-.317.43-.427.722-.11.284-.164.62-.164 1.006s.055.728.164 1.027c.11.3.255.547.438.744.182.197.39.346.623.448.24.102.484.153.732.153zm4.115.503v-7.872h.722V26h-.722zm6.196 0l-.01-1.05c-.161.328-.409.605-.744.831-.328.226-.75.34-1.268.34-.248 0-.492-.034-.733-.1a2.088 2.088 0 01-.645-.294 1.596 1.596 0 01-.46-.525 1.573 1.573 0 01-.163-.733c0-.313.069-.576.208-.787.145-.211.346-.386.6-.525.256-.138.562-.251.92-.339.364-.094.765-.175 1.202-.24l1.039-.164v-.219c0-.488-.135-.842-.405-1.06-.27-.226-.63-.34-1.082-.34-.423 0-.784.11-1.083.329a1.32 1.32 0 00-.535.874h-.711c.036-.277.12-.524.251-.743.139-.226.314-.415.525-.569.212-.153.452-.27.722-.35a2.75 2.75 0 01.852-.13c.635 0 1.156.152 1.564.459.408.306.612.82.612 1.541l-.022 2.526c0 .08.004.207.011.382.008.175.022.47.044.886h-.689zm-3.313-1.564c0 .365.143.638.427.82.284.175.612.263.984.263.525 0 .962-.168 1.312-.503.357-.343.536-.81.536-1.4v-.623c-1.138.146-1.965.314-2.482.503-.518.183-.776.496-.776.94zm8.025 1.684a2.658 2.658 0 01-1.947-.83 3.024 3.024 0 01-.579-.952 3.45 3.45 0 01-.208-1.213c0-.438.073-.835.219-1.192.146-.365.343-.67.59-.919.248-.255.54-.451.875-.59a2.605 2.605 0 011.05-.219c.313 0 .612.048.896.143.285.094.536.23.755.404.226.168.411.372.557.612.153.24.252.507.295.798h-.721c-.11-.4-.325-.721-.645-.962-.321-.24-.704-.36-1.148-.36a1.852 1.852 0 00-1.41.634 2.18 2.18 0 00-.416.721 2.672 2.672 0 00-.153.93c0 .335.047.648.142.94.102.284.24.532.415.743.183.204.394.368.635.492.247.117.513.175.798.175.437 0 .812-.12 1.126-.36.32-.241.54-.57.656-.985h.721a2.344 2.344 0 01-.874 1.454 2.604 2.604 0 01-1.63.536zm8.733-1.738a2.167 2.167 0 01-.963 1.29 2.983 2.983 0 01-1.607.448c-.386 0-.747-.069-1.082-.207a2.634 2.634 0 01-.875-.613 3.055 3.055 0 01-.58-.94 3.515 3.515 0 01-.207-1.235c0-.46.073-.872.219-1.236.153-.364.353-.67.6-.918.249-.248.537-.438.865-.569a2.687 2.687 0 011.006-.197c.349 0 .685.062 1.005.186.328.124.613.31.853.558.241.24.434.546.58.918.145.365.218.784.218 1.258v.196H98.2c.03.634.234 1.156.613 1.564.379.408.852.612 1.421.612.423 0 .791-.095 1.104-.284.321-.19.562-.467.722-.831h.722zm-2.635-3.564c-.248 0-.485.043-.711.13a1.97 1.97 0 00-1.039.984c-.11.234-.175.5-.197.799h3.871c-.029-.59-.23-1.057-.601-1.4a1.887 1.887 0 00-1.323-.513z" fill="#6C5CE7"></path><defs><linearGradient id="ProductLogoMarketplace_svg__paint0_linear_11830_10530" x1="2.671" y1="4.471" x2="32.921" y2="26.018" gradientUnits="userSpaceOnUse"><stop stop-color="#49A466"></stop><stop offset="0.5" stop-color="#6F83F2"></stop><stop offset="1" stop-color="#8A3DFF"></stop></linearGradient></defs></svg>
