<svg xmlns:xlink="http://www.w3.org/1999/xlink" width="115" height="32" viewBox="0 0 115 32" fill="none" xmlns="http://www.w3.org/2000/svg" class="Icon--original" name="ProductLogoPersonalization" data-test-id="cs-icon"><mask id="ProductLogoPersonalization_svg__a" maskUnits="userSpaceOnUse" x="0" y="0" width="32" height="32" style="mask-type: alpha;" fill="none"><path fill="#D9D9D9" d="M0 0h32v32H0z"></path></mask><g mask="url(#ProductLogoPersonalization_svg__a)" fill="none"><path d="M15.992 31.364c-2.128 0-4.126-.4-5.993-1.2a15.424 15.424 0 01-4.883-3.283 15.4 15.4 0 01-3.283-4.891c-.8-1.872-1.2-3.872-1.2-6s.4-4.126 1.2-5.992A15.474 15.474 0 015.11 5.113C6.497 3.723 8.126 2.63 10 1.83c1.873-.8 3.875-1.2 6.005-1.2s4.13.4 6.002 1.2c1.87.8 3.499 1.894 4.883 3.283 1.384 1.39 2.476 3.02 3.276 4.892.8 1.872 1.2 3.872 1.2 6s-.4 4.126-1.2 5.992a15.423 15.423 0 01-3.283 4.884 15.4 15.4 0 01-4.891 3.283c-1.872.8-3.872 1.2-6 1.2zm.007-3.666c3.245 0 6.006-1.137 8.284-3.41 2.278-2.273 3.416-5.037 3.416-8.29 0-3.245-1.138-6.006-3.416-8.284-2.278-2.278-5.04-3.416-8.284-3.416-3.244 0-6.005 1.138-8.283 3.416C5.438 9.992 4.3 12.754 4.3 15.998c0 3.244 1.14 6.005 3.417 8.283 2.278 2.278 5.039 3.417 8.283 3.417zm.004-2.167c-2.647 0-4.898-.927-6.754-2.78-1.855-1.852-2.783-4.102-2.783-6.75 0-2.647.927-4.898 2.78-6.753 1.852-1.856 4.102-2.784 6.75-2.784 2.647 0 4.898.927 6.754 2.78 1.855 1.852 2.783 4.102 2.783 6.75 0 2.647-.927 4.898-2.78 6.753-1.852 1.856-4.102 2.784-6.75 2.784zm-.008-3.7c1.603 0 2.977-.57 4.121-1.712 1.145-1.142 1.717-2.514 1.717-4.117 0-1.603-.571-2.977-1.712-4.121-1.142-1.145-2.514-1.717-4.117-1.717-1.603 0-2.977.575-4.121 1.724-1.145 1.149-1.717 2.52-1.717 4.114 0 1.603.57 2.975 1.713 4.117 1.14 1.141 2.513 1.712 4.116 1.712zm0-2.133a3.571 3.571 0 01-2.612-1.077c-.722-.718-1.083-1.59-1.083-2.618 0-1.02.362-1.892 1.088-2.617.725-.726 1.598-1.088 2.617-1.088 1.018 0 1.889.362 2.611 1.088.722.725 1.084 1.598 1.084 2.617 0 1.018-.363 1.889-1.089 2.611-.725.722-1.598 1.084-2.617 1.084z" fill="url(&quot;#ProductLogoPersonalization_svg__paint0_linear_11830_10510&quot;)"></path></g><path d="M44.188 13.131c-.496 0-.974-.09-1.433-.273a3.681 3.681 0 01-1.192-.798 3.89 3.89 0 01-.809-1.258 4.5 4.5 0 01-.295-1.672c0-.613.102-1.163.306-1.651.204-.496.478-.911.82-1.247a3.737 3.737 0 012.602-1.05c.445 0 .86.063 1.247.187.394.123.736.302 1.028.535.298.226.546.503.743.831.197.32.328.678.394 1.072H46.34a1.962 1.962 0 00-.765-1.083c-.379-.277-.842-.415-1.389-.415-.335 0-.648.069-.94.208-.291.13-.547.32-.765.568-.212.24-.38.536-.503.886a3.391 3.391 0 00-.186 1.159c0 .43.062.823.186 1.18.124.35.291.653.503.908.218.248.474.44.765.58.292.138.605.207.94.207.547 0 1.006-.135 1.378-.405.372-.27.634-.634.787-1.093h1.258a3.1 3.1 0 01-.416 1.104 2.96 2.96 0 01-.743.82c-.292.226-.63.401-1.017.525a4.294 4.294 0 01-1.246.175zm7.242-.01c-.4 0-.78-.07-1.137-.209a2.76 2.76 0 01-.919-.59 2.968 2.968 0 01-.612-.951 3.245 3.245 0 01-.23-1.247c0-.437.077-.834.23-1.191.153-.365.357-.67.612-.919a2.76 2.76 0 01.919-.59 2.98 2.98 0 011.137-.219c.408 0 .787.07 1.137.208.357.139.663.335.918.59.263.248.467.554.613.919.153.364.23.765.23 1.202 0 .452-.077.864-.23 1.236-.153.372-.361.689-.623.951a2.876 2.876 0 01-2.045.81zm0-1.04c.496 0 .9-.178 1.214-.535.313-.365.47-.838.47-1.421 0-.547-.157-.995-.47-1.345-.314-.357-.718-.536-1.214-.536-.503 0-.911.179-1.225.536-.306.35-.459.798-.459 1.345 0 .575.157 1.046.47 1.41.314.364.718.547 1.214.547zm5.395-2.197V13h-1.18V7.337h1.169v.7c.175-.263.408-.467.7-.613.291-.146.623-.219.995-.219.627 0 1.122.197 1.487.59.371.387.557.945.557 1.674V13h-1.18V9.61c0-.415-.11-.746-.329-.994-.218-.255-.52-.383-.907-.383-.35 0-.656.139-.919.416-.262.27-.393.681-.393 1.235zm7.171 3.127c-.444 0-.809-.098-1.093-.295-.277-.197-.415-.605-.415-1.225V8.288h-.984v-.951h.984V5.98h1.17v1.356h1.355v.95h-1.355v3.04c0 .306.05.503.153.59.109.088.273.132.492.132h.71v.94c-.204.007-.371.011-.503.011-.124.007-.295.01-.514.01zm7.245-1.63a2.244 2.244 0 01-.404.788 2.343 2.343 0 01-.635.536c-.233.138-.488.24-.765.306-.277.073-.554.11-.83.11-.394 0-.766-.07-1.116-.209a2.76 2.76 0 01-.918-.59 2.755 2.755 0 01-.624-.94 3.278 3.278 0 01-.23-1.258c0-.444.077-.845.23-1.202.16-.365.368-.674.624-.93.262-.255.56-.448.896-.579a2.855 2.855 0 012.11-.01c.336.123.627.313.875.568.255.247.46.565.612.95.153.387.23.832.23 1.335v.273h-4.363c.051.488.24.875.569 1.159.328.284.707.426 1.137.426.284 0 .558-.054.82-.164a1.17 1.17 0 00.601-.568h1.181zm-2.733-3.18c-.401 0-.755.123-1.06.371-.3.248-.475.587-.526 1.017h3.138c-.029-.416-.19-.751-.48-1.006-.292-.255-.65-.383-1.072-.383zm5.27 1.683V13h-1.182V7.337h1.17v.7c.175-.263.408-.467.7-.613.291-.146.623-.219.995-.219.627 0 1.122.197 1.487.59.372.387.557.945.557 1.674V13h-1.18V9.61c0-.415-.11-.746-.328-.994-.219-.255-.522-.383-.908-.383-.35 0-.656.139-.918.416-.263.27-.394.681-.394 1.235zm7.17 3.127c-.444 0-.808-.098-1.093-.295-.277-.197-.415-.605-.415-1.225V8.288h-.984v-.951h.984V5.98h1.17v1.356h1.356v.95H80.61v3.04c0 .306.05.503.153.59.11.088.273.132.492.132h.71v.94c-.204.007-.371.011-.502.011-.124.007-.296.01-.514.01zm4.323.12c-.321 0-.627-.04-.919-.12a2.622 2.622 0 01-.765-.35 2.06 2.06 0 01-.547-.601 2.019 2.019 0 01-.262-.853h1.137c.05.335.207.58.47.732.262.146.565.22.907.22.292 0 .558-.06.799-.176.24-.116.36-.299.36-.546 0-.226-.105-.394-.317-.503-.211-.117-.514-.212-.907-.285l-.558-.098c-.546-.095-.977-.273-1.29-.536-.313-.262-.47-.612-.47-1.05 0-.276.058-.524.175-.743.116-.219.273-.404.47-.557.204-.154.44-.27.71-.35.27-.08.555-.12.853-.12.292 0 .573.04.842.12.27.073.507.186.711.339.211.145.383.328.514.546.138.219.226.467.262.744H86.32a.917.917 0 00-.437-.58c-.219-.13-.485-.197-.798-.197-.3 0-.55.066-.755.197-.204.124-.306.292-.306.503a.47.47 0 00.252.438c.167.094.419.17.754.23l.558.098c.605.109 1.09.295 1.454.557.364.255.546.63.546 1.126 0 .292-.065.55-.196.776a1.666 1.666 0 01-.514.57c-.212.152-.46.269-.744.349a3.09 3.09 0 01-.864.12zm5.431-.12c-.445 0-.809-.098-1.093-.295-.277-.197-.416-.605-.416-1.225V8.288h-.984v-.951h.984V5.98h1.17v1.356h1.356v.95h-1.356v3.04c0 .306.051.503.153.59.11.088.273.132.492.132h.71v.94c-.203.007-.37.011-.502.011-.124.007-.295.01-.514.01zM96.457 13l-.021-.743a1.88 1.88 0 01-.733.634c-.299.153-.66.23-1.082.23-.263 0-.518-.037-.766-.11a2.11 2.11 0 01-.656-.317 1.673 1.673 0 01-.459-.547 1.579 1.579 0 01-.175-.754c0-.613.233-1.05.7-1.312.474-.263 1.079-.452 1.815-.569l1.279-.207V9.25c0-.394-.106-.674-.317-.842-.204-.168-.489-.251-.853-.251-.357 0-.645.083-.864.251-.218.168-.36.408-.426.722H92.75c.073-.59.343-1.057.809-1.4.466-.35 1.024-.525 1.673-.525.328 0 .63.037.907.11.284.073.529.19.733.35.204.16.36.375.47.645.117.262.175.586.175.973l-.022 2.58c0 .087.004.215.01.383.008.16.023.411.045.754h-1.094zm-2.722-1.662a.71.71 0 00.306.612c.211.139.478.208.798.208.416 0 .773-.127 1.072-.383.299-.255.448-.634.448-1.137v-.404c-.926.117-1.596.248-2.012.393-.408.139-.612.376-.612.711zm7.834 1.782c-.393 0-.762-.069-1.104-.207a2.805 2.805 0 01-.897-.602 2.92 2.92 0 01-.59-.951 3.357 3.357 0 01-.219-1.236c0-.422.073-.812.219-1.17.153-.364.357-.674.612-.929a2.808 2.808 0 012.001-.82c.321 0 .631.051.929.153.307.102.576.248.809.438.234.182.427.404.58.667.153.262.244.55.273.863h-1.17a1.296 1.296 0 00-.524-.787 1.505 1.505 0 00-.908-.295c-.474 0-.86.179-1.159.536-.299.357-.448.805-.448 1.345 0 .56.153 1.027.459 1.399.306.372.689.558 1.148.558.328 0 .623-.091.886-.274.269-.19.452-.463.546-.82h1.17a2.23 2.23 0 01-.317.908c-.16.262-.361.484-.601.667-.233.182-.499.32-.798.415a2.887 2.887 0 01-.897.142zm7.647-.12l-1.629-2.733-.984.984V13h-1.17V5.128h1.17v4.68l2.405-2.471h1.531l-2.11 2.099L110.594 13h-1.378zM40.929 26v-7.653h2.7c.846 0 1.495.211 1.947.634.46.423.689.987.689 1.694 0 .715-.233 1.283-.7 1.706-.466.423-1.115.634-1.946.634h-1.924V26h-.766zm.766-3.652h1.88c.612 0 1.083-.15 1.41-.448.329-.306.493-.71.493-1.214 0-.503-.164-.907-.492-1.213-.328-.306-.798-.46-1.41-.46h-1.881v3.335zm10.636 2.034c-.16.561-.482.991-.963 1.29a2.985 2.985 0 01-1.607.448c-.386 0-.747-.069-1.082-.207a2.634 2.634 0 01-.875-.613 3.053 3.053 0 01-.58-.94 3.515 3.515 0 01-.207-1.235c0-.46.073-.872.219-1.236a2.83 2.83 0 01.601-.918c.248-.248.536-.438.864-.569a2.686 2.686 0 011.006-.197c.35 0 .685.062 1.005.186.328.124.613.31.853.558.24.24.434.546.58.918.145.365.218.784.218 1.258v.196H47.75c.03.634.234 1.156.613 1.564.379.408.853.612 1.421.612.423 0 .791-.095 1.104-.284.321-.19.562-.467.722-.831h.722zm-2.635-3.564a1.95 1.95 0 00-.711.13 1.97 1.97 0 00-1.039.984c-.109.234-.175.5-.197.799h3.87c-.028-.59-.229-1.057-.6-1.4a1.887 1.887 0 00-1.323-.513zm4.792 1.913V26h-.722v-5.663h.722v1.093a2.11 2.11 0 01.197-.35 1.4 1.4 0 01.295-.328c.175-.16.36-.273.558-.339.196-.073.411-.11.645-.11.05 0 .102.004.153.012.058 0 .113.003.164.01v.7a3.652 3.652 0 00-.252-.01h-.164c-.168 0-.346.029-.536.087a1.56 1.56 0 00-.514.284c-.152.131-.284.31-.393.536-.102.218-.153.488-.153.809zm5.028 3.4c-.307 0-.598-.044-.875-.131-.27-.08-.51-.197-.722-.35a2.096 2.096 0 01-.525-.58 1.904 1.904 0 01-.251-.797h.7c.058.393.244.7.557.918.321.219.696.328 1.126.328.183 0 .361-.022.536-.066.182-.043.34-.105.47-.186.132-.087.237-.193.317-.317a.79.79 0 00.132-.448.738.738 0 00-.372-.667c-.248-.16-.583-.284-1.006-.372l-.634-.13c-.518-.103-.926-.27-1.225-.504-.291-.24-.437-.568-.437-.984 0-.247.055-.473.164-.677.11-.205.255-.376.437-.514a2.15 2.15 0 01.656-.34c.255-.08.521-.12.798-.12.562 0 1.046.15 1.455.449.415.291.656.688.721 1.191h-.689a1.239 1.239 0 00-.513-.754c-.27-.19-.602-.284-.995-.284-.372 0-.69.095-.952.284-.262.182-.393.42-.393.71 0 .263.102.463.306.602.211.131.503.233.875.306l.634.142c.568.117 1.02.3 1.355.547.343.24.514.59.514 1.05 0 .27-.062.51-.186.721-.116.211-.277.39-.48.536a2.216 2.216 0 01-.69.317c-.262.08-.532.12-.808.12zm5.95-.01c-.386 0-.755-.07-1.104-.208a2.808 2.808 0 01-.897-.602 2.92 2.92 0 01-.59-.951 3.357 3.357 0 01-.22-1.235c0-.438.074-.835.22-1.192a2.83 2.83 0 01.6-.919c.256-.255.555-.451.897-.59a2.763 2.763 0 011.094-.219c.386 0 .75.07 1.093.208.35.139.649.335.897.59.255.256.455.565.601.93.146.357.219.754.219 1.192 0 .451-.077.863-.23 1.235a2.85 2.85 0 01-.601.94 2.605 2.605 0 01-.886.613 2.89 2.89 0 01-1.093.207zm0-.646c.59 0 1.082-.215 1.476-.645.393-.437.59-1.006.59-1.705 0-.671-.2-1.218-.601-1.64a1.906 1.906 0 00-1.465-.645c-.59 0-1.083.215-1.476.645-.394.422-.59.969-.59 1.64 0 .692.196 1.257.59 1.694.393.438.885.656 1.476.656zm4.917-2.744V26h-.722v-5.663h.722v.94c.16-.306.4-.561.722-.765.32-.205.703-.307 1.148-.307.597 0 1.086.183 1.465.547.379.364.568.922.568 1.673V26h-.721v-3.488c0-.554-.142-.97-.427-1.246-.277-.284-.638-.426-1.082-.426-.219 0-.43.04-.634.12a1.617 1.617 0 00-.908.95 2.334 2.334 0 00-.131.82zM79.701 26l-.01-1.05c-.16.328-.409.605-.744.831-.328.226-.75.34-1.268.34-.248 0-.492-.034-.733-.1a2.09 2.09 0 01-.645-.294 1.597 1.597 0 01-.46-.525 1.573 1.573 0 01-.163-.733c0-.313.07-.576.208-.787.145-.211.346-.386.601-.525.255-.138.561-.251.918-.339a11.67 11.67 0 011.203-.24l1.039-.164v-.219c0-.488-.135-.842-.405-1.06-.27-.226-.63-.34-1.082-.34-.423 0-.784.11-1.083.329a1.32 1.32 0 00-.535.874h-.711c.037-.277.12-.524.251-.743.139-.226.314-.415.525-.569.212-.153.452-.27.722-.35.27-.087.554-.13.853-.13.634 0 1.155.152 1.563.459.408.306.612.82.612 1.541l-.022 2.526c0 .08.004.207.012.382.007.175.021.47.043.886h-.689zm-3.312-1.564c0 .365.142.638.426.82.284.175.612.263.984.263.525 0 .962-.168 1.312-.503.357-.343.536-.81.536-1.4v-.623c-1.137.146-1.965.314-2.482.503-.518.183-.776.496-.776.94zM82.084 26v-7.872h.722V26h-.722zm2.5-6.855v-1.017h.755v1.017h-.754zM84.597 26v-5.663h.721V26h-.721zm6.491-.623V26h-4.439v-.678l3.575-4.362h-3.531v-.623h4.351v.677l-3.575 4.363h3.62zm6.11-.995c-.16.561-.48.991-.962 1.29a2.985 2.985 0 01-1.607.448c-.386 0-.747-.069-1.082-.207a2.634 2.634 0 01-.875-.613 3.055 3.055 0 01-.58-.94 3.515 3.515 0 01-.207-1.235c0-.46.073-.872.219-1.236.153-.364.353-.67.6-.918.249-.248.537-.438.864-.569a2.686 2.686 0 011.006-.197c.35 0 .686.062 1.006.186.328.124.613.31.853.558.24.24.434.546.58.918.145.365.218.784.218 1.258v.196h-4.614c.03.634.234 1.156.613 1.564.379.408.852.612 1.42.612.424 0 .792-.095 1.105-.284.32-.19.561-.467.722-.831h.721zm-2.635-3.564a1.95 1.95 0 00-.71.13 1.968 1.968 0 00-1.039.984c-.11.234-.175.5-.197.799h3.87c-.028-.59-.229-1.057-.6-1.4a1.886 1.886 0 00-1.323-.513z" fill="#222222"></path><defs><linearGradient id="ProductLogoPersonalization_svg__paint0_linear_11830_10510" x1="-2.1" y1="-0.601" x2="40.557" y2="28.063" gradientUnits="userSpaceOnUse"><stop stop-color="#49A466"></stop><stop offset="0.5" stop-color="#6F83F2"></stop><stop offset="1" stop-color="#8A3DFF"></stop></linearGradient><linearGradient id="ProductLogoPersonalization_svg__paint0_linear_11830_10510" x1="-2.1" y1="-0.601" x2="40.557" y2="28.063" gradientUnits="userSpaceOnUse"><stop stop-color="#49A466"></stop><stop offset="0.5" stop-color="#6F83F2"></stop><stop offset="1" stop-color="#8A3DFF"></stop></linearGradient></defs></svg>