<svg xmlns="http://www.w3.org/2000/svg" width="145" height="32" viewBox="0 0 145 32" fill="none">
  <!-- Icon part (Lytics logo) -->
  <mask id="Lytics_svg__a" maskUnits="userSpaceOnUse" x="0" y="0" width="32" height="32" style="mask-type: alpha;">
    <path fill="#D9D9D9" d="M0 0h32v32H0z"/>
  </mask>
  <g mask="url(#Lytics_svg__a)">
    <path d="M8.88 13.026a3.742 3.742 0 0 1-1.857-6.988l7.821-4.478a3.734 3.734 0 0 1 5.098 1.391 3.746 3.746 0 0 1-1.39 5.106l-7.818 4.475a3.733 3.733 0 0 1-1.854.494Z" fill="url(#Lytics_svg__b)"/>
    <path d="M8.88 23.726a3.742 3.742 0 0 1-1.857-6.988l7.818-4.474a3.734 3.734 0 0 1 5.098 1.39 3.739 3.739 0 0 1-1.386 5.104l-7.82 4.474a3.698 3.698 0 0 1-1.853.494Z" fill="url(#Lytics_svg__c)"/>
    <path d="M15.309 30.933a3.742 3.742 0 0 1-1.857-6.988l7.818-4.475a3.734 3.734 0 0 1 5.098 1.391 3.742 3.742 0 0 1-1.39 5.103L17.16 30.44a3.729 3.729 0 0 1-1.85.494Z" fill="url(#Lytics_svg__d)"/>
  </g>

  <!-- Text part -->
  <text x="38" y="15" font-family="Arial, sans-serif" font-size="12" font-weight="600" fill="#222222">Data &amp; Insights</text>

  <defs>
    <linearGradient id="Lytics_svg__b" x1="3.208" y1="-0.131" x2="38.533" y2="17.132" gradientUnits="userSpaceOnUse">
      <stop stop-color="#49A466"/>
      <stop offset="0.5" stop-color="#6F83F2"/>
      <stop offset="1" stop-color="#8A3DFF"/>
    </linearGradient>
    <linearGradient id="Lytics_svg__c" x1="3.208" y1="-0.131" x2="38.533" y2="17.132" gradientUnits="userSpaceOnUse">
      <stop stop-color="#49A466"/>
      <stop offset="0.5" stop-color="#6F83F2"/>
      <stop offset="1" stop-color="#8A3DFF"/>
    </linearGradient>
    <linearGradient id="Lytics_svg__d" x1="3.208" y1="-0.131" x2="38.533" y2="17.132" gradientUnits="userSpaceOnUse">
      <stop stop-color="#49A466"/>
      <stop offset="0.5" stop-color="#6F83F2"/>
      <stop offset="1" stop-color="#8A3DFF"/>
    </linearGradient>
  </defs>
</svg>
