<svg xmlns:xlink="http://www.w3.org/1999/xlink" width="24" height="24" viewBox="0 0 32 32" fill="none" xmlns="http://www.w3.org/2000/svg"><mask id="Lytics_svg__a" maskUnits="userSpaceOnUse" x="0" y="0" width="32" height="32" style="mask-type: alpha;" fill="none"><path fill="#D9D9D9" d="M0 0h32v32H0z"></path></mask><g mask="url(#Lytics_svg__a)" fill="none"><path d="M8.88 13.026a3.742 3.742 0 0 1-1.857-6.988l7.821-4.478a3.734 3.734 0 0 1 5.098 1.391 3.746 3.746 0 0 1-1.39 5.106l-7.818 4.475a3.733 3.733 0 0 1-1.854.494Z" fill="url(&quot;#Lytics_svg__b&quot;)"></path><path d="M8.88 23.726a3.742 3.742 0 0 1-1.857-6.988l7.818-4.474a3.734 3.734 0 0 1 5.098 1.39 3.739 3.739 0 0 1-1.386 5.104l-7.82 4.474a3.698 3.698 0 0 1-1.853.494Z" fill="url(&quot;#Lytics_svg__c&quot;)"></path><path d="M15.309 30.933a3.742 3.742 0 0 1-1.857-6.988l7.818-4.475a3.734 3.734 0 0 1 5.098 1.391 3.742 3.742 0 0 1-1.39 5.103L17.16 30.44a3.729 3.729 0 0 1-1.85.494Z" fill="url(&quot;#Lytics_svg__d&quot;)"></path></g><defs><linearGradient id="Lytics_svg__b" x1="3.208" y1="-0.131" x2="38.533" y2="17.132" gradientUnits="userSpaceOnUse"><stop stop-color="#49A466"></stop><stop offset="0.5" stop-color="#6F83F2"></stop><stop offset="1" stop-color="#8A3DFF"></stop></linearGradient><linearGradient id="Lytics_svg__c" x1="3.208" y1="-0.131" x2="38.533" y2="17.132" gradientUnits="userSpaceOnUse"><stop stop-color="#49A466"></stop><stop offset="0.5" stop-color="#6F83F2"></stop><stop offset="1" stop-color="#8A3DFF"></stop></linearGradient><linearGradient id="Lytics_svg__d" x1="3.208" y1="-0.131" x2="38.533" y2="17.132" gradientUnits="userSpaceOnUse"><stop stop-color="#49A466"></stop><stop offset="0.5" stop-color="#6F83F2"></stop><stop offset="1" stop-color="#8A3DFF"></stop></linearGradient><linearGradient id="Lytics_svg__b" x1="3.208" y1="-0.131" x2="38.533" y2="17.132" gradientUnits="userSpaceOnUse"><stop stop-color="#49A466"></stop><stop offset="0.5" stop-color="#6F83F2"></stop><stop offset="1" stop-color="#8A3DFF"></stop></linearGradient><linearGradient id="Lytics_svg__c" x1="3.208" y1="-0.131" x2="38.533" y2="17.132" gradientUnits="userSpaceOnUse"><stop stop-color="#49A466"></stop><stop offset="0.5" stop-color="#6F83F2"></stop><stop offset="1" stop-color="#8A3DFF"></stop></linearGradient><linearGradient id="Lytics_svg__d" x1="3.208" y1="-0.131" x2="38.533" y2="17.132" gradientUnits="userSpaceOnUse"><stop stop-color="#49A466"></stop><stop offset="0.5" stop-color="#6F83F2"></stop><stop offset="1" stop-color="#8A3DFF"></stop></linearGradient></defs></svg>