<svg xmlns:xlink="http://www.w3.org/1999/xlink" width="32" height="32" viewBox="0 0 32 32" fill="none" xmlns="http://www.w3.org/2000/svg" class="TopNavbar__Icon-margin-r4 Icon--v2 Icon--small" name="PersonalizeEventsDefault" data-test-id="cs-icon"><path fill-rule="evenodd" clip-rule="evenodd" d="M13.798 13.912c0-1.293 1.05-2.34 2.347-2.34a2.344 2.344 0 012.347 2.34v7.079l1.354-1.21a2.311 2.311 0 013.4.352c.698.949.566 2.27-.307 3.063l-5.088 4.62a.707.707 0 01-.997-.046.703.703 0 01.046-.995l5.089-4.62a.892.892 0 00.119-1.19.897.897 0 00-1.32-.136l-2.531 2.263a.707.707 0 01-1.177-.524v-8.656a.934.934 0 00-.935-.933.934.934 0 00-.935.933v5.217a.705.705 0 01-.706.704h-4.06c-.855 0-1.424.88-1.073 1.656l2.494 5.517a.707.707 0 01-1.287.579l-2.494-5.517c-.773-1.709.48-3.643 2.36-3.643h3.354v-4.513z" fill="currentColor" stroke="currentColor"></path><path fill-rule="evenodd" clip-rule="evenodd" d="M4 6.643C4 5.736 4.737 5 5.647 5h20.706C27.263 5 28 5.736 28 6.643v6.571c0 .907-.737 1.643-1.647 1.643h-4.706a.705.705 0 110-1.408h4.706c.13 0 .235-.105.235-.235V6.643a.235.235 0 00-.235-.235H5.647a.235.235 0 00-.235.235v6.571c0 .13.105.235.235.235h4.706a.705.705 0 110 1.408H5.647c-.91 0-1.647-.736-1.647-1.643V6.643z" fill="currentColor" stroke="currentColor"></path><path fill-rule="evenodd" clip-rule="evenodd" d="M11.045 10.515a.707.707 0 01.964-.257l1.505.866a.703.703 0 01.258.962.707.707 0 01-.964.258l-1.505-.867a.703.703 0 01-.258-.962zM16 7.816c.39 0 .706.316.706.704v1.878a.705.705 0 01-1.412 0V8.52c0-.388.316-.704.706-.704zM21.591 10.515a.707.707 0 00-.964-.257l-1.505.866a.703.703 0 00-.258.962.707.707 0 00.964.258l1.505-.867a.703.703 0 00.258-.962z" fill="currentColor" stroke="currentColor"></path></svg>