<svg width="63" height="63" viewBox="0 0 63 63" fill="none" xmlns="http://www.w3.org/2000/svg">
<mask id="mask0_43_861" style="mask-type:alpha" maskUnits="userSpaceOnUse" x="0" y="0" width="63" height="63">
<rect width="62.1818" height="62.1818" fill="#D9D9D9"/>
</mask>
<g mask="url(#mask0_43_861)">
<path d="M6.41162 60.9497V44.2384C6.41162 42.8565 6.73548 41.5719 7.38321 40.3844C8.03094 39.1969 8.91617 38.2145 10.0389 37.4372L13.148 35.2997C13.4934 39.3588 14.0548 42.9213 14.8321 45.9872C15.6093 49.0531 16.7537 52.4861 18.265 56.2861L6.41162 60.9497ZM22.7344 54.019C21.0934 49.9168 19.8844 46.0736 19.1071 42.4895C18.3298 38.9054 17.9412 35.3645 17.9412 31.8668C17.9412 26.5122 19.1395 21.3196 21.5361 16.2889C23.9326 11.2582 27.1173 7.20995 31.09 4.14404C35.0628 7.20995 38.2474 11.2582 40.644 16.2889C43.0406 21.3196 44.2389 26.5122 44.2389 31.8668C44.2389 35.3645 43.8503 38.8946 43.073 42.4571C42.2957 46.0196 41.0866 49.8736 39.4457 54.019H22.7344ZM31.09 33.3565C32.3855 33.3565 33.4866 32.8923 34.3934 31.9639C35.3003 31.0355 35.7537 29.9236 35.7537 28.6281C35.7537 27.3327 35.3003 26.2315 34.3934 25.3247C33.4866 24.4179 32.3855 23.9645 31.09 23.9645C29.7946 23.9645 28.6934 24.4179 27.7866 25.3247C26.8798 26.2315 26.4264 27.3327 26.4264 28.6281C26.4264 29.9236 26.8798 31.0355 27.7866 31.9639C28.6934 32.8923 29.7946 33.3565 31.09 33.3565ZM55.7684 60.9497L43.915 56.2861C45.4264 52.4861 46.5707 49.0531 47.348 45.9872C48.1253 42.9213 48.6866 39.3588 49.0321 35.2997L52.1412 37.4372C53.2639 38.2145 54.1491 39.1969 54.7969 40.3844C55.4446 41.5719 55.7684 42.8565 55.7684 44.2384V60.9497Z" fill="url(#paint0_linear_43_861)"/>
</g>
<defs>
<linearGradient id="paint0_linear_43_861" x1="2.02322" y1="1.86736" x2="76.1828" y2="45.1647" gradientUnits="userSpaceOnUse">
<stop stop-color="#49A466"/>
<stop offset="0.5" stop-color="#6F83F2"/>
<stop offset="1" stop-color="#8A3DFF"/>
</linearGradient>
</defs>
</svg>
