<svg width="63" height="63" viewBox="0 0 63 63" fill="none" xmlns="http://www.w3.org/2000/svg">
<mask id="mask0_43_867" style="mask-type:alpha" maskUnits="userSpaceOnUse" x="0" y="0" width="63" height="63">
<rect width="62.1818" height="62.1818" fill="#D9D9D9"/>
</mask>
<g mask="url(#mask0_43_867)">
<path d="M38.5417 59.2022C35.8212 59.2022 33.4894 58.2198 31.5462 56.2551C29.603 54.2903 28.6314 51.9477 28.6314 49.2272C28.6314 46.5068 29.603 44.1642 31.5462 42.1994C33.4894 40.2346 35.8212 39.2522 38.5417 39.2522C41.2621 39.2522 43.6047 40.2346 45.5695 42.1994C47.5343 44.1642 48.5167 46.5068 48.5167 49.2272C48.5167 51.9477 47.5343 54.2903 45.5695 56.2551C43.6047 58.2198 41.2621 59.2022 38.5417 59.2022ZM42.7616 35.8193C38.1779 35.8193 34.2883 34.2293 31.0928 31.0494C27.8974 27.8695 26.2996 23.9939 26.2996 19.4227C26.2996 14.8515 27.8941 10.9681 31.0831 7.77267C34.2716 4.57722 38.158 2.97949 42.7422 2.97949C47.3259 2.97949 51.2155 4.57398 54.411 7.76296C57.6064 10.9515 59.2042 14.8379 59.2042 19.422C59.2042 24.0058 57.6097 27.8846 54.4207 31.0585C51.2322 34.2323 47.3458 35.8193 42.7616 35.8193ZM14.7701 47.3488C11.4883 47.3488 8.70304 46.2045 6.4144 43.9159C4.12576 41.6272 2.98145 38.8528 2.98145 35.5926C2.98145 32.3323 4.13548 29.5579 6.44355 27.2693C8.75118 24.9806 11.5256 23.8363 14.7668 23.8363C18.0076 23.8363 20.7724 24.9858 23.061 27.2848C25.3496 29.5838 26.4939 32.3474 26.4939 35.5757C26.4939 38.804 25.346 41.5732 23.05 43.8835C20.754 46.1937 17.994 47.3488 14.7701 47.3488Z" fill="url(#paint0_linear_43_867)"/>
</g>
<defs>
<linearGradient id="paint0_linear_43_867" x1="-2.01742" y1="0.726174" x2="76.0187" y2="53.1627" gradientUnits="userSpaceOnUse">
<stop stop-color="#49A466"/>
<stop offset="0.5" stop-color="#6F83F2"/>
<stop offset="1" stop-color="#8A3DFF"/>
</linearGradient>
</defs>
</svg>
