<svg xmlns:xlink="http://www.w3.org/1999/xlink" width="32" height="32" viewBox="0 0 32 32" fill="none" xmlns="http://www.w3.org/2000/svg" class="Icon--v2 Icon--tiny" name="ContentstackPersonalize" data-test-id="cs-icon"><path fill-rule="evenodd" clip-rule="evenodd" d="M16 5.412c-5.848 0-10.588 4.74-10.588 10.588 0 5.848 4.74 10.588 10.588 10.588 5.848 0 10.588-4.74 10.588-10.588 0-5.848-4.74-10.588-10.588-10.588zM4 16C4 9.373 9.373 4 16 4s12 5.373 12 12-5.373 12-12 12S4 22.627 4 16z" fill="#475161"></path><path fill-rule="evenodd" clip-rule="evenodd" d="M16 10.118a5.882 5.882 0 100 11.765 5.882 5.882 0 000-11.765zM8.706 16a7.294 7.294 0 1114.588 0 7.294 7.294 0 01-14.588 0z" fill="#475161"></path><path d="M17.882 16a1.882 1.882 0 11-3.764 0 1.882 1.882 0 013.764 0z" fill="#475161"></path></svg>