<svg width="32" height="32" viewBox="0 0 32 32" fill="none" xmlns="http://www.w3.org/2000/svg">
  <g fill-rule="evenodd" clip-rule="evenodd" fill="currentColor">
    <path d="M16 4.75C9.787 4.75 4.75 9.787 4.75 16S9.787 27.25 16 27.25 27.25 22.213 27.25 16 22.213 4.75 16 4.75zM3.25 16C3.25 8.958 8.958 3.25 16 3.25S28.75 8.958 28.75 16 23.042 28.75 16 28.75 3.25 23.042 3.25 16z"/>
    <path d="M18.558 10.998a.75.75 0 01-.056 1.06L14.122 16l4.38 3.942a.75.75 0 11-1.004 1.116l-5-4.5a.75.75 0 010-1.115l5-4.5a.75.75 0 011.06.055z"/>
  </g>
</svg>
