<svg width="32" height="32" viewBox="0 0 32 32" fill="none" xmlns="http://www.w3.org/2000/svg">
  <path fill-rule="evenodd" clip-rule="evenodd" d="M14.5 4.75c-5.385 0-9.75 4.365-9.75 9.75s4.365 9.75 9.75 9.75 9.75-4.365 9.75-9.75-4.365-9.75-9.75-9.75zM3.25 14.5c0-6.213 5.037-11.25 11.25-11.25S25.75 8.287 25.75 14.5 20.713 25.75 14.5 25.75 3.25 20.713 3.25 14.5z" fill="currentColor"/>
  <path fill-rule="evenodd" clip-rule="evenodd" d="M21.395 21.395a.75.75 0 011.06 0l6.075 6.075a.75.75 0 11-1.06 1.06l-6.075-6.075a.75.75 0 010-1.06z" fill="currentColor"/>
</svg>
