<svg width="60" height="59" viewBox="0 0 60 59" fill="none" xmlns="http://www.w3.org/2000/svg">
<path d="M30 0C46.2924 0 59.5 13.2076 59.5 29.5C59.5 45.7924 46.2924 59 30 59C13.7076 59 0.5 45.7924 0.5 29.5C0.5 13.2076 13.7076 0 30 0ZM27.5 5.12598C15.1433 6.37832 5.5 16.813 5.5 29.5C5.5 42.187 15.1434 52.6207 27.5 53.873V5.12598ZM32.5 53.54V53.873C44.0016 52.7073 53.1501 43.5867 54.3613 32.0986L32.5 53.54ZM32.5 38.0615V46.5352L54.1416 25.3096C53.7523 23.0507 53.0546 20.8976 52.0918 18.8955L32.5 38.0615ZM32.5 22.0342V31.0674L49.3984 14.5361C48.0384 12.7756 46.446 11.2034 44.6641 9.87012L32.5 22.0342ZM32.5 14.9639L40.2305 7.2334C37.8365 6.13164 35.235 5.40317 32.5 5.12598V14.9639Z" fill="black"/>
</svg>
