<svg name="PersonalizeExperiencesDefault" data-test-id="cs-icon" width="32" height="32" viewBox="0 0 32 32" fill="none" xmlns="http://www.w3.org/2000/svg"><path d="M5.342 6.31c.51 4.132.504 8.346-.007 12.477h3.204c.364 0 .658.29.658.648a.653.653 0 0 1-.658.649H5.177a1.169 1.169 0 0 1-1.168-1.308c.524-4.13.53-8.347.005-12.476-.092-.726.515-1.353 1.255-1.296l4.05.306c4.447.337 8.915.337 13.363 0l4.049-.306c.74-.057 1.347.57 1.255 1.296-.524 4.13-.52 8.346.005 12.476a1.169 1.169 0 0 1-1.168 1.308H23.46a.653.653 0 0 1-.658-.649c0-.358.294-.648.658-.648h3.204a50.986 50.986 0 0 1-.007-12.477l-3.875.293c-4.516.342-9.05.342-13.566 0L5.342 6.31z" fill="#647696"></path><path fill-rule="evenodd" clip-rule="evenodd" d="M9.197 25.454c0-3.682 3.031-6.667 6.77-6.667 3.58 0 6.542 2.746 6.757 6.266l.078 1.26a.643.643 0 0 1-.178.483.663.663 0 0 1-.48.204H9.856a.653.653 0 0 1-.659-.648v-.898zm6.77-5.37c-3.012 0-5.453 2.404-5.453 5.37v.25h10.931l-.035-.573c-.174-2.835-2.559-5.047-5.443-5.047zM16 9.277c-2.303 0-4.17 1.838-4.17 4.106S13.698 17.49 16 17.49s4.17-1.839 4.17-4.107c0-2.268-1.867-4.106-4.17-4.106zm-2.853 4.106c0-1.551 1.277-2.81 2.853-2.81 1.576 0 2.853 1.258 2.853 2.81s-1.277 2.81-2.853 2.81c-1.575 0-2.853-1.258-2.853-2.81z" fill="#647696"></path></svg>