<svg name="PersonalizeAttributesActive" data-test-id="cs-icon" width="32" height="32" viewBox="0 0 32 32" fill="none" xmlns="http://www.w3.org/2000/svg"><path d="M25.991 15.28a.719.719 0 0 0 1.434 0c0-1.481-.29-2.948-.855-4.317a11.284 11.284 0 0 0-2.435-3.66A11.196 11.196 0 0 0 16.191 4a.719.719 0 0 0-.717.721c0 .398.32.72.717.72a9.767 9.767 0 0 1 6.93 2.882 9.875 9.875 0 0 1 2.87 6.958zM6.39 15.28a.719.719 0 0 0-.717-.72.719.719 0 0 0-.717.72c0 1.481.29 2.948.855 4.317a11.284 11.284 0 0 0 2.436 3.66 11.197 11.197 0 0 0 7.944 3.304.719.719 0 0 0 .717-.721.719.719 0 0 0-.717-.72 9.767 9.767 0 0 1-6.93-2.882 9.874 9.874 0 0 1-2.87-6.958z" fill="#6C5CE7"></path><path fill-rule="evenodd" clip-rule="evenodd" d="M11.65 20.08c0-2.515 2.03-4.56 4.536-4.56a4.545 4.545 0 0 1 4.526 4.242l.019.268a.722.722 0 0 1-.716.77h-7.649a.719.719 0 0 1-.717-.72zM16.19 9.76a2.635 2.635 0 0 0-2.629 2.64 2.635 2.635 0 0 0 2.63 2.64 2.635 2.635 0 0 0 2.63-2.64 2.635 2.635 0 0 0-2.63-2.64zM4 6.64c0-.928.75-1.68 1.673-1.68h3.825c.924 0 1.673.752 1.673 1.68v3.84c0 .928-.749 1.68-1.673 1.68H5.673A1.677 1.677 0 0 1 4 10.48V6.64zM25.29 21.16a1.67 1.67 0 0 0-2.899 0l-2.484 4.32c-.644 1.12.16 2.52 1.449 2.52h4.968c1.288 0 2.093-1.4 1.45-2.52l-2.485-4.32z" fill="#6C5CE7"></path></svg>