<svg name="PersonalizeEventsActive" data-test-id="cs-icon" width="32" height="32" viewBox="0 0 32 32" fill="none" xmlns="http://www.w3.org/2000/svg"><path fill-rule="evenodd" clip-rule="evenodd" d="M4 6.643C4 5.736 4.737 5 5.647 5h20.706C27.263 5 28 5.736 28 6.643v6.571c0 .907-.737 1.643-1.647 1.643h-4.706a.705.705 0 1 1 0-1.408h4.706c.13 0 .235-.105.235-.235V6.643a.235.235 0 0 0-.235-.235H5.647a.235.235 0 0 0-.235.235v6.571c0 .13.105.235.235.235h4.706a.705.705 0 1 1 0 1.408H5.647c-.91 0-1.647-.736-1.647-1.643V6.643z" fill="#6C5CE7"></path><path fill-rule="evenodd" clip-rule="evenodd" d="M11.045 10.515a.707.707 0 0 1 .964-.257l1.505.866a.703.703 0 0 1 .258.962.707.707 0 0 1-.964.258l-1.505-.867a.703.703 0 0 1-.258-.962zM16 7.816c.39 0 .706.316.706.704v1.878a.705.705 0 0 1-1.412 0V8.52c0-.388.316-.704.706-.704zM21.591 10.515a.707.707 0 0 0-.964-.257l-1.505.866a.703.703 0 0 0-.258.962.707.707 0 0 0 .964.258l1.505-.867a.703.703 0 0 0 .258-.962z" fill="#6C5CE7"></path><path d="M17.763 23.247v-8.624a1.723 1.723 0 0 0-3.447 0v5.167H10.15a2 2 0 0 0-1.809 2.854l1.989 4.21A2 2 0 0 0 12.137 28h3.897c.837 0 1.646-.302 2.278-.852l4.319-3.754a1.639 1.639 0 0 0-2.14-2.481l-2.728 2.334z" fill="#6C5CE7"></path></svg>