<svg name="PersonalizeAudiencesHover" data-test-id="cs-icon" width="32" height="32" viewBox="0 0 32 32" fill="none" xmlns="http://www.w3.org/2000/svg"><path fill-rule="evenodd" clip-rule="evenodd" d="M11.854 20.364a4.141 4.141 0 1 1 8.273-.29l.017.245a.655.655 0 0 1-.653.7h-6.982a.655.655 0 0 1-.655-.655zm1.386-.655h5.513a2.833 2.833 0 0 0-5.513 0z" fill="#6C5CE7"></path><path fill-rule="evenodd" clip-rule="evenodd" d="M16 10.982a2.4 2.4 0 1 0 0 4.8 2.4 2.4 0 0 0 0-4.8zm-1.09 2.4a1.09 1.09 0 1 1 2.18 0 1.09 1.09 0 0 1-2.18 0z" fill="#6C5CE7"></path><path fill-rule="evenodd" clip-rule="evenodd" d="M16 4c.361 0 .654.293.654.655v1.111a10.256 10.256 0 0 1 9.58 9.58h1.111a.655.655 0 0 1 0 1.308h-1.111a10.256 10.256 0 0 1-9.58 9.58v1.111a.655.655 0 0 1-1.309 0v-1.111a10.256 10.256 0 0 1-9.579-9.58H4.655a.655.655 0 1 1 0-1.309h1.111a10.256 10.256 0 0 1 9.58-9.579V4.655c0-.362.293-.655.654-.655zm8.922 11.345h-1.067a.654.654 0 1 0 0 1.31h1.067a8.947 8.947 0 0 1-8.268 8.267v-1.067a.654.654 0 1 0-1.309 0v1.067a8.947 8.947 0 0 1-8.267-8.268h1.067a.655.655 0 1 0 0-1.309H7.078a8.947 8.947 0 0 1 8.267-8.267v1.067a.655.655 0 1 0 1.31 0V7.078a8.947 8.947 0 0 1 8.267 8.267z" fill="#6C5CE7"></path></svg>